<svg width="47" height="47" viewBox="0 0 47 47" fill="none" xmlns="http://www.w3.org/2000/svg">
<path d="M1.46875 9.91406V37.0859H14.5957C15.812 37.0859 24.1885 36.8392 24.1885 29.1914C24.1885 24.4122 20.901 22.7886 19.2314 22.3066C20.4592 21.7272 22.9033 20.3502 22.9033 16.6611C22.9033 14.6072 22.6107 9.91406 14.2285 9.91406H1.46875ZM31.3945 12.4385V14.917H41.5381V12.4385H31.3945ZM7.43555 14.5498H13.0352C13.563 14.5498 17.1201 14.2687 17.1201 17.6709C17.1201 20.5797 14.5498 20.8838 13.4941 20.8838H7.43555V14.5498ZM36.7188 17.166C29.048 17.166 27.4473 23.827 27.4473 26.7129C27.4473 35.2787 34.4697 36.2598 36.7188 36.2598C42.7831 36.2598 44.5043 32.3354 45.21 30.1553H40.8037C40.6316 30.7175 39.3464 32.542 36.9023 32.542C32.8059 32.542 32.4502 29.3406 32.4502 27.9062H45.4854C45.7493 22.9492 43.5806 17.166 36.7188 17.166ZM36.5811 20.8838C37.8031 20.8838 38.7899 21.2395 39.3809 21.8936C39.9718 22.5533 40.4078 23.5172 40.5283 24.7852H32.4502C32.4731 24.4352 32.5535 24.0336 32.6797 23.5918C32.8059 23.1385 33.001 22.7083 33.3223 22.3066C33.6436 21.9108 34.0911 21.5665 34.6074 21.2969C35.1353 21.0215 35.7893 20.8838 36.5811 20.8838ZM7.43555 24.9688H13.9072C15.1924 24.9688 18.2217 25.1696 18.2217 28.8701C18.2217 32.4559 14.4064 32.4502 13.8154 32.4502H7.43555V24.9688Z" fill="#3F4F6A"/>
</svg>
