<svg width="35" height="22" viewBox="0 0 35 22" fill="none" xmlns="http://www.w3.org/2000/svg">
<path d="M0.464 1.176H6.512C7.33333 1.176 8.136 1.26 8.92 1.428C9.704 1.596 10.404 1.876 11.02 2.268C11.636 2.64133 12.1307 3.136 12.504 3.752C12.896 4.368 13.092 5.13333 13.092 6.048C13.092 7.20533 12.7747 8.16667 12.14 8.932C11.524 9.67867 10.684 10.2107 9.62 10.528V10.584C10.2547 10.64 10.8427 10.808 11.384 11.088C11.944 11.3493 12.42 11.6947 12.812 12.124C13.2227 12.5533 13.54 13.0573 13.764 13.636C13.988 14.196 14.1 14.8027 14.1 15.456C14.1 16.5573 13.8667 17.4627 13.4 18.172C12.952 18.8813 12.3547 19.4507 11.608 19.88C10.88 20.2907 10.0493 20.58 9.116 20.748C8.20133 20.916 7.28667 21 6.372 21H0.464V1.176ZM2.816 9.576H6.064C6.624 9.576 7.16533 9.53867 7.688 9.464C8.22933 9.38933 8.71467 9.24 9.144 9.016C9.57333 8.77333 9.91867 8.44667 10.18 8.036C10.4413 7.60667 10.572 7.04667 10.572 6.356C10.572 5.74 10.4507 5.24533 10.208 4.872C9.96533 4.48 9.63867 4.172 9.228 3.948C8.836 3.724 8.37867 3.57467 7.856 3.5C7.352 3.40667 6.83867 3.36 6.316 3.36H2.816V9.576ZM2.816 18.816H6.792C7.37067 18.816 7.94 18.76 8.5 18.648C9.07867 18.5173 9.592 18.3213 10.04 18.06C10.5067 17.78 10.88 17.4253 11.16 16.996C11.44 16.548 11.58 16.0067 11.58 15.372C11.58 14.6813 11.44 14.1027 11.16 13.636C10.8987 13.1693 10.544 12.796 10.096 12.516C9.66667 12.236 9.16267 12.04 8.584 11.928C8.024 11.816 7.44533 11.76 6.848 11.76H2.816V18.816ZM34.9567 19.656C33.8181 20.2907 32.6141 20.7573 31.3447 21.056C30.0941 21.3547 28.8247 21.504 27.5367 21.504C25.9874 21.504 24.5687 21.252 23.2807 20.748C21.9927 20.244 20.8727 19.5347 19.9207 18.62C18.9874 17.7053 18.2594 16.6133 17.7367 15.344C17.2141 14.056 16.9527 12.6373 16.9527 11.088C16.9527 9.52 17.2234 8.10133 17.7647 6.832C18.3247 5.544 19.0901 4.452 20.0607 3.556C21.0314 2.64133 22.1607 1.932 23.4487 1.428C24.7367 0.923999 26.1274 0.672 27.6207 0.672C28.9274 0.672 30.1781 0.867999 31.3727 1.26C32.5861 1.652 33.6687 2.324 34.6207 3.276L32.8567 5.124C32.1847 4.396 31.3634 3.836 30.3927 3.444C29.4407 3.052 28.4607 2.856 27.4527 2.856C26.3141 2.856 25.2594 3.06133 24.2887 3.472C23.3181 3.88267 22.4687 4.452 21.7407 5.18C21.0314 5.908 20.4714 6.776 20.0607 7.784C19.6687 8.792 19.4727 9.89333 19.4727 11.088C19.4727 12.264 19.6687 13.356 20.0607 14.364C20.4714 15.372 21.0314 16.2493 21.7407 16.996C22.4687 17.724 23.3367 18.2933 24.3447 18.704C25.3527 19.1147 26.4634 19.32 27.6767 19.32C28.4794 19.32 29.3194 19.2267 30.1967 19.04C31.0741 18.8347 31.8767 18.5453 32.6047 18.172V12.096H28.0407V9.912H34.9567V19.656Z" fill="white"/>
</svg>
