<svg width="32" height="32" viewBox="0 0 32 32" fill="none" xmlns="http://www.w3.org/2000/svg">
<path d="M15.9994 2.99512C12.8334 2.99525 9.77067 4.12194 7.35934 6.17358C4.94801 8.22523 3.34539 11.0679 2.83823 14.1931C2.33107 17.3182 2.95248 20.5219 4.59125 23.2308C6.23003 25.9397 8.77923 27.9771 11.7827 28.9784C12.4494 29.0951 12.6994 28.6951 12.6994 28.3451C12.6994 28.0284 12.6827 26.9784 12.6827 25.8618C9.33272 26.4784 8.46605 25.0452 8.19939 24.2952C7.90349 23.5657 7.43442 22.9193 6.83272 22.4118C6.36605 22.1618 5.69939 21.5451 6.81604 21.5285C7.24242 21.5747 7.65137 21.7231 8.00823 21.961C8.36508 22.1989 8.65934 22.5193 8.86605 22.8951C9.04841 23.2227 9.29363 23.5111 9.58764 23.7438C9.88165 23.9764 10.2187 24.1488 10.5794 24.251C10.9402 24.3532 11.3175 24.3832 11.6899 24.3393C12.0622 24.2953 12.4223 24.1784 12.7494 23.9951C12.8071 23.3173 13.1092 22.6835 13.5994 22.2118C10.6327 21.8785 7.53272 20.7284 7.53272 15.6285C7.51398 14.3034 8.00297 13.0213 8.89939 12.0452C8.49176 10.8934 8.53946 9.62954 9.03272 8.51182C9.03272 8.51182 10.1493 8.16181 12.6994 9.87849C14.8811 9.27845 17.1843 9.27845 19.3661 9.87849C21.916 8.14516 23.0327 8.51182 23.0327 8.51182C23.526 9.62952 23.5737 10.8935 23.1661 12.0452C24.0652 13.0196 24.5546 14.3028 24.5327 15.6285C24.5327 20.7451 21.416 21.8785 18.4494 22.2118C18.7676 22.5343 19.0127 22.9215 19.1679 23.3472C19.3232 23.7728 19.3851 24.2268 19.3494 24.6785C19.3494 26.4618 19.3327 27.8951 19.3327 28.3452C19.3327 28.6952 19.5827 29.1118 20.2494 28.9785C23.2476 27.969 25.7895 25.9268 27.4213 23.2165C29.0531 20.5062 29.6686 17.3042 29.1579 14.1821C28.6472 11.06 27.0436 8.22095 24.6333 6.1718C22.2231 4.12265 19.163 2.99676 15.9994 2.99512Z" fill="#3F4F6A"/>
</svg>
