<svg width="44" height="45" viewBox="0 0 44 45" fill="none" xmlns="http://www.w3.org/2000/svg">
<path d="M22.0004 4.5C12.2808 4.5 4.40039 12.5595 4.40039 22.5C4.40039 32.4405 12.2808 40.5 22.0004 40.5C31.72 40.5 39.6004 32.4405 39.6004 22.5C39.6004 12.5595 31.72 4.5 22.0004 4.5ZM15.3945 12.6045C16.6295 12.6045 17.4523 13.446 17.4523 14.568C17.4523 15.69 16.6295 16.5315 15.2581 16.5315C14.0232 16.533 13.2004 15.69 13.2004 14.568C13.2004 13.446 14.0232 12.6045 15.3945 12.6045ZM17.6004 30H13.2004V18H17.6004V30ZM32.2671 30H28.1252V23.442C28.1252 21.6285 27.0208 21.21 26.6072 21.21C26.1936 21.21 24.812 21.489 24.812 23.442C24.812 23.721 24.812 30 24.812 30H20.5337V18H24.8135V19.674C25.3649 18.6975 26.4693 18 28.5403 18C30.6112 18 32.2671 19.674 32.2671 23.442V30Z" fill="#E0E7F7"/>
</svg>
