<svg width="32" height="32" viewBox="0 0 32 32" fill="none" xmlns="http://www.w3.org/2000/svg">
<g clip-path="url(#clip0_777_88)">
<path d="M16.312 7.91052L17.768 6.45452C18.2786 5.94341 18.8849 5.53791 19.5523 5.26119C20.2197 4.98448 20.9351 4.84197 21.6576 4.8418C22.3801 4.84163 23.0955 4.98381 23.763 5.26021C24.4305 5.53662 25.0371 5.94184 25.5479 6.45271C26.0588 6.96358 26.464 7.57011 26.7404 8.23763C27.0168 8.90515 27.159 9.62059 27.1589 10.3431C27.1587 11.0656 27.0162 11.7809 26.7395 12.4483C26.4627 13.1157 26.0572 13.7221 25.5461 14.2327L22.0106 17.7682C21.4999 18.279 20.8936 18.6841 20.2263 18.9605C19.559 19.2369 18.8438 19.3791 18.1215 19.3791C17.3992 19.3791 16.684 19.2369 16.0168 18.9605C15.3495 18.6841 14.7431 18.279 14.2324 17.7682" stroke="#E0E7F7" stroke-width="4" stroke-linecap="round" stroke-linejoin="round"/>
<path d="M15.6885 24.0899L14.2327 25.5457C13.7221 26.0568 13.1157 26.4623 12.4483 26.739C11.7809 27.0158 11.0656 27.1583 10.3431 27.1584C9.62059 27.1586 8.90515 27.0164 8.23763 26.74C7.57011 26.4636 6.96358 26.0584 6.45271 25.5475C5.94184 25.0367 5.53662 24.4301 5.26021 23.7626C4.98381 23.0951 4.84163 22.3796 4.8418 21.6572C4.84197 20.9347 4.98448 20.2193 5.26119 19.5519C5.53791 18.8845 5.94341 18.2782 6.45452 17.7675L9.99005 14.232C10.5008 13.7213 11.1071 13.3162 11.7744 13.0398C12.4417 12.7634 13.1569 12.6211 13.8791 12.6211C14.6014 12.6211 15.3166 12.7634 15.9839 13.0398C16.6512 13.3162 17.2575 13.7213 17.7682 14.232" stroke="#E0E7F7" stroke-width="4" stroke-linecap="round" stroke-linejoin="round"/>
</g>
<defs>
<clipPath id="clip0_777_88">
<rect width="32" height="32" fill="white"/>
</clipPath>
</defs>
</svg>
