<svg width="18" height="18" viewBox="0 0 18 18" fill="none" xmlns="http://www.w3.org/2000/svg">
<path d="M10.2 1.7998C6.76347 1.7998 3.93498 4.44127 3.63042 7.7998H1.79995C1.72044 7.79868 1.64151 7.81337 1.56773 7.84302C1.49395 7.87266 1.42679 7.91668 1.37017 7.97251C1.31355 8.02834 1.26859 8.09486 1.2379 8.16821C1.20721 8.24157 1.19141 8.32029 1.19141 8.3998C1.19141 8.47932 1.20721 8.55804 1.2379 8.6314C1.26859 8.70475 1.31355 8.77127 1.37017 8.8271C1.42679 8.88293 1.49395 8.92694 1.56773 8.95659C1.64151 8.98624 1.72044 9.00093 1.79995 8.9998H3.63042H7.79995C8.13175 8.9998 8.39995 9.268 8.39995 9.5998C8.39995 9.9316 8.13175 10.1998 7.79995 10.1998H4.19995C4.12044 10.1987 4.04151 10.2134 3.96773 10.243C3.89394 10.2727 3.82679 10.3167 3.77017 10.3725C3.71355 10.4283 3.66859 10.4949 3.6379 10.5682C3.60721 10.6416 3.59141 10.7203 3.59141 10.7998C3.59141 10.8793 3.60721 10.958 3.6379 11.0314C3.66859 11.1048 3.71355 11.1713 3.77017 11.2271C3.82679 11.2829 3.89394 11.3269 3.96773 11.3566C4.04151 11.3862 4.12044 11.4009 4.19995 11.3998H9.59995C9.93175 11.3998 10.2 11.668 10.2 11.9998C10.2 12.3316 9.93175 12.5998 9.59995 12.5998H7.79995H2.39995C2.32044 12.5987 2.24151 12.6134 2.16773 12.643C2.09394 12.6727 2.02679 12.7167 1.97017 12.7725C1.91355 12.8283 1.86859 12.8949 1.8379 12.9682C1.80721 13.0416 1.79141 13.1203 1.79141 13.1998C1.79141 13.2793 1.80721 13.358 1.8379 13.4314C1.86859 13.5048 1.91355 13.5713 1.97017 13.6271C2.02679 13.6829 2.09394 13.7269 2.16773 13.7566C2.24151 13.7862 2.32044 13.8009 2.39995 13.7998H7.79995C8.13175 13.7998 8.39995 14.068 8.39995 14.3998C8.39995 14.5192 8.35565 14.6238 8.29565 14.7174C8.89925 14.8998 9.53815 14.9998 10.2 14.9998C13.4484 14.9998 16.2528 12.5755 16.7226 9.36074C16.7538 9.14954 16.6703 8.9373 16.5035 8.8041C16.3373 8.6709 16.112 8.63827 15.9128 8.71387C15.4232 8.90347 14.9136 8.9998 14.4 8.9998C12.0846 8.9998 10.2 7.1152 10.2 4.7998C10.2 4.0666 10.3952 3.34172 10.7648 2.70332C10.8686 2.52452 10.8608 2.30447 10.7648 2.12207C10.6682 1.93907 10.4743 1.81892 10.2691 1.80332C10.2535 1.80212 10.215 1.7998 10.2 1.7998Z" fill="#E0E7F7"/>
</svg>
