<svg width="16" height="14" viewBox="0 0 16 14" fill="none" xmlns="http://www.w3.org/2000/svg">
<path d="M9.19995 0.799805C5.76347 0.799805 2.93498 3.44127 2.63042 6.7998H0.799952C0.720445 6.79868 0.641507 6.81337 0.567726 6.84302C0.493945 6.87266 0.426792 6.91668 0.37017 6.97251C0.313549 7.02833 0.268587 7.09486 0.237898 7.16821C0.20721 7.24157 0.191406 7.32029 0.191406 7.3998C0.191406 7.47932 0.20721 7.55804 0.237898 7.6314C0.268587 7.70475 0.313549 7.77127 0.37017 7.8271C0.426792 7.88293 0.493945 7.92694 0.567726 7.95659C0.641507 7.98624 0.720445 8.00093 0.799952 7.9998H2.63042H6.79995C7.13175 7.9998 7.39995 8.268 7.39995 8.5998C7.39995 8.9316 7.13175 9.1998 6.79995 9.1998H3.19995C3.12044 9.19868 3.04151 9.21337 2.96773 9.24302C2.89394 9.27267 2.82679 9.31668 2.77017 9.37251C2.71355 9.42833 2.66859 9.49486 2.6379 9.56821C2.60721 9.64157 2.59141 9.72029 2.59141 9.7998C2.59141 9.87932 2.60721 9.95804 2.6379 10.0314C2.66859 10.1048 2.71355 10.1713 2.77017 10.2271C2.82679 10.2829 2.89394 10.3269 2.96773 10.3566C3.04151 10.3862 3.12044 10.4009 3.19995 10.3998H8.59995C8.93175 10.3998 9.19995 10.668 9.19995 10.9998C9.19995 11.3316 8.93175 11.5998 8.59995 11.5998H6.79995H1.39995C1.32044 11.5987 1.24151 11.6134 1.16773 11.643C1.09394 11.6727 1.02679 11.7167 0.97017 11.7725C0.913549 11.8283 0.868587 11.8949 0.837898 11.9682C0.80721 12.0416 0.791406 12.1203 0.791406 12.1998C0.791406 12.2793 0.80721 12.358 0.837898 12.4314C0.868587 12.5048 0.913549 12.5713 0.97017 12.6271C1.02679 12.6829 1.09394 12.7269 1.16773 12.7566C1.24151 12.7862 1.32044 12.8009 1.39995 12.7998H6.79995C7.13175 12.7998 7.39995 13.068 7.39995 13.3998C7.39995 13.5192 7.35565 13.6238 7.29565 13.7174C7.89925 13.8998 8.53815 13.9998 9.19995 13.9998C12.4484 13.9998 15.2528 11.5755 15.7226 8.36074C15.7538 8.14954 15.6703 7.9373 15.5035 7.8041C15.3373 7.6709 15.112 7.63827 14.9128 7.71387C14.4232 7.90347 13.9136 7.9998 13.4 7.9998C11.0846 7.9998 9.19995 6.1152 9.19995 3.7998C9.19995 3.0666 9.39519 2.34172 9.76479 1.70332C9.86859 1.52452 9.86079 1.30447 9.76479 1.12207C9.66819 0.93907 9.47429 0.81892 9.26909 0.80332C9.25349 0.80212 9.21495 0.799805 9.19995 0.799805Z" fill="#373C50"/>
</svg>
