<?xml version="1.0" encoding="UTF-8"?><svg xmlns="http://www.w3.org/2000/svg" viewBox="0 0 95.42 31.51"><defs><style>.d{fill:#f2c94c;}</style></defs><g id="a"/><g id="b"><g id="c"><g><path class="d" d="M47.56,31.47c-2.28,.17-4.54-.14-6.72-.42-.32,0-.58-.11-.88-.17-.22-.02-.59,.09-.65-.08-1-.05-1.92-.29-2.9-.41-.45-.06-.87-.24-1.36-.21,0-.12-.14-.11-.32-.07-.01-.2-.5-.09-.72-.2-.14-.14-.61,.07-.43-.16,1.04,.08,2.06,.35,3.06,.52,3.44,.46,6.94,1.04,10.54,.92,.15,.07,.28,.14,.4,.21l-.03,.08Z"/><path class="d" d="M50.64,30.89c-.9,.31-2.03,.35-3.05,.5-.13-.07-.26-.14-.4-.21-3.6,.12-7.1-.46-10.54-.92-1-.18-2.02-.45-3.06-.52-.81,.04-1.54-.31-2.38-.36-.33-.18-.7-.25-1.23-.26-.87-.12-1.58-.47-2.49-.53-.27-.15-.26-.35-.93-.25-.23-.17-.68-.2-1.02-.3-1.26-.32-2.49-.69-3.74-1.01-.9-.34-2.04-.5-2.88-.88-.82-.24-1.68-.46-2.43-.76,.18-.12,.51-.2,.54-.36-.49,0-1.29,.07-1.44-.23,.48-.37,1.43,.05,2.08-.01,.38,.01-.19,.2-.18,.3,.45,.1,.94,.09,1.39,.17-.04,.12-.22,.31,.21,.24,.49,.08,.17-.3,.63-.24-.03,.11-.09,.21-.12,.31,.36,.09,.87,.06,1.22,0,.35-.13,.25-.37,.33-.57-.29,.05-.51,.17-.76,.26-.1-.23-.29-.36-.77-.26-.33-.16-.67-.26-1.12-.14,.35-.31-.49-.42-.97-.37-.48-.05-.54-.23-.38-.44-.37-.01-.4,.24-.75,.25-.06-.19-.28-.43,.17-.55,.43-.05,1.46,.08,1.31,.39,.72,.04,1.08-.41,1.88-.26-.72-.2-1.32-.57-2.22-.57-.3-.35-1.11-.12-1.68-.14,.05-.2,.47-.31,.68-.47-.11-.07-.25-.14-.38-.21-.51,.16-1.11,.02-1.66,.11-.07-.1-.13-.21-.25-.31-.26,.01-.52,.05-.79,.07,.04-.13,.11-.26,.16-.39-.4-.24-.95,.29-1.25,.07,.16-.49,1.41-.27,2.11-.36-.25,.17-.67,.28-.54,.52,.22-.03,.66-.08,.88-.11,.23-.11,.38-.29,.74-.29-.16,.13-.43,.23-.5,.39,.5,.07,1,.1,1.45-.05,.17,.11,.15,.25,.21,.37,.3-.02,.66-.12,.77,.08-.21,.09-.73,.05-.63,.23,.58,.2,1.28,.09,1.86,.22,.45,0,.9-.03,1.34-.05,.02,.19-.46,.42-.79,.23-.53-.3-.94,.6,.25,.21,.5,.09,.89,.32,1.44,.28,.07-.1,0-.3,.34-.22,.27,.1-.01,.28,.04,.42,.2,.03,.39,.08,.58,.12,0-.24,.44-.44,.84-.23-.13,.13-.34,.24-.31,.4,.38,.04,.68-.06,.98-.15,.26,.08,.63,.14,.65,.31-.18-.02-.35-.03-.53-.06,.2,.3,1.04,.21,1.45,.05-.01,.1-.18,.34,.17,.3,.68-.18,1.13,.32,1.83,.14,.48-.03-.05,.37,.42,.33,.49-.1,.77,.24,1.27,.13,1.57,.39,3.3,.62,4.98,.87,.25-.01,.1,.21,.32,.18,1.18-.06,2.35,.14,3.51,.23,.57,.06-.32,.53,.35,.45,.33-.01,.1-.28,.35-.38,.3,.05,.62,.18,.9,.05,.11-.21-.01-.55,.86-.28,.49,.04,.95-.08,1.44-.03,.2,.03,.53-.02,.47-.15-.21-.3-.73-.64-1.43-.48-.09-.24,.55-.13,.81-.23,.49-.07,.21-.36,.28-.55-.77,.05-1.66,.13-2.34-.11-.29-.12-.65,.04-.98,0-.38-.04-.74-.1-1.12-.14-.3,.07-.4,.41-.79,.23-.23-.12-.76,.08-.83-.14,.41-.07,.88-.06,1.28-.1,.02-.44-1.11-.03-1.56-.26-1.07-.3-.78,.21-1.05,.49-.93,.23-1.88-.39-2.73,.01,0-.46,.88-.84,1.8-.72,.03-.31-.85-.15-1.24-.26-.93-.14-.76,.78-1.64,.5,.32-.24,.58-.5,1.13-.62-.49-.12-1.17-.21-1.68-.11-.36,.26,.72,.01,.66,.25-.27,.13-.56,.25-.87,.35,.22-.23-.14-.28-.52-.34,.11-.11,.25-.21,.32-.33-.31,.01-.51,.15-.76,.23-.08-.07-.16-.13-.26-.2-.5,.08-.93-.1-1.43-.13,.41-.43,1.75,.24,1.78-.28-.46-.06-.95-.06-1.43-.07-.27,.05-.51,.15-.82,.14,.03-.14,.1-.27,.15-.41-.43,.02-.53,.3-.96,.33-.4,0-.78-.07-1.12-.17,.08-.13,.28-.24,.32-.37-.14-.14-.65-.11-.58,.06,.09,.12-.02,.27-.34,.25-.05-.12-.15-.36-.2-.48-.84,.37-1.87-.09-2.6-.32,.57-.03,1.08-.22,1.65-.09-.11-.15-.61-.44,0-.46,1.87,.15,3.51,.6,5.28,.87-.2,.15-.45,.32,.11,.22,.03-.19,.34-.29,.69-.31-.04,.19-.06,.38,.04,.57,.52-.16,1.07-.18,1.65-.04,.4,.44,1.21-.36,1.25,.02-.05,.15,.52,.03,.43,.16-.42,.03-.85,.07-1.28,.11,.29,.24,.92,.09,1.35,.2,.27,.05,.59,.09,.86,.05,.51-.14,1.12-.07,1.68-.09,.07,.16-.3,.23-.32,.37,.48,.22,1.2,.1,1.73,.26,.93,.18,1.93,.29,2.92,.35,.9-.1,1.85,.33,2.68,.09,.1-.14,.21-.28,.21-.43-.27-.03-.58-.01-.8-.11-.12-.18,.45-.32,.63-.15,.31,.2,.84,.33,.93,.59,.23,.25,.68,.47,.52,.77-.21-.08-.4-.17-.63-.24-.24,.14-1.07,.47-.45,.6,.98-.23,.87,.14,.52,.24-.36,.12-.65,.3-.76,.51,.32,.02,.72-.14,.95,.02,.29,.11,.36,.28,.41,.44,1-.22,.84,.12,.55,.25-.76-.03-1.74,.05-2.13-.35-.48,.05-1.06-.12-1.42,.1-.22,.1-.48,.17-.76,.19,.16-.11,.34-.22,.5-.33-.39-.05-.65,.07-.87,.21-.37,.03-.71,.1-.94,.26,.86,.02,1.94,.02,2.32,.48-.51,.3-1.3,.07-1.9-.02-.72-.13-1.5-.22-2.26-.13-.03-.05-.08-.16-.11-.22-.66-.07-1.38-.3-2.06-.15-.43-.03-.9-.12-1.13-.32-.19,.08-.37,.16-.58,.22-.02-.1-.04-.21-.08-.31-.5-.12-1.05,0-1.59-.02,.11-.11,.26-.21,.38-.31-.44,0-.97,.05-1.43,.06-.2-.08-.26-.32-.59-.27-1.71,.47,.32-.67-1.37-.31-.32-.03-.64,0-.96,.02-.12-.09-.16-.2-.24-.3-.35,.02-.53,.22-.89,.25,.01-.2,.54-.55-.59-.34,.24-.26-.47-.33-.86-.37-.4,.06-.66-.11-.88-.25-.45,.02-.94,.05-1.39,.06-.09-.23,.63-.13,.65-.31-.58-.06-1.17-.07-1.76-.1,.03-.13,.1-.26,.15-.38-.27,0-.57,.1-.82,0-.48-.16-1.05,0-1.58,0,.09,.18,.39,.25,.73,.27,.14,.4,1.09,.29,1.65,.45,.57,.02,.4,.52,1.22,.37,.36,.2,.93,.23,1.4,.34,.78,.13,1.33,.49,2.17,.53,.92,.28,1.97,.41,2.96,.6,.49,.17,1.21,.15,1.53,.43,.61-.01,1.21,.11,1.8,.15,.78,.53,2.39,.24,3.32,.63,.55-.01,.98,.21,1.52,.19,1.01,.08,2.04,.07,3.03,.07,.3-.09,.7-.12,.9-.27,.12-.13,.15-.29,.31-.41,.27-.03,.44,.08,.64,.15,.41-.05,.83-.06,1.24,0,.24-.1-.11-.39,.34-.38,.44,.09,.61,.39,1.05,.51,.7,.03,1.33,.17,1.99,.27,.54-.25-.46-.48-.31-.77,.74-.08,1.69-.04,2.27,.21-.61-.04-.8,.4-.46,.57,.64-.02,1.29-.04,1.89-.17,0-.1-.1-.19-.2-.28-.3-.11-.75,.04-.94-.16,.43-.03,.9-.15,1.31-.02,.32,.12,.58-.06,.81-.15-.18-.16-.44-.3-.52-.48,.54-.02,.86,0,1.3,.09-.01,.15-.13,.29-.12,.44,.28,.24,1.05,.29,1.41,.08,0-.23-.54-.37-.95-.41,.14-.1,.31-.19,.46-.29-.38-.15-.19-.42-.45-.62,.2-.1,.89-.17,.44-.32-.47,.02-.96,.04-1.42-.03,.36-.18,.83-.7,1.36-.35,.77-.03,.76-.51,.42-.76-.49-.23,.01-.36,.16-.54-.12,0-.37-.02-.5-.02,.49-.11,.19-.4,.12-.59-.53,.02-.52-.36-.19-.47,.36-.08,.06-.3,.23-.44,.23-.24-.12-.48-.22-.71-.25-.02-.58-.05-.74,.08-.05,.11,.23,.16,.31,.24-.14,.11-.32,.25-.62,.23-.23-.12-.07-.3-.18-.45-.16,.02-.32,.04-.49,.05,.23-.13,.81-.39,.18-.48-.35,.22-.83,.44-1.5,.31,.14-.12,.39-.11,.63-.1,.37-.17,.77-.34,1.3-.36,.13,.24,.23,.49,.85,.39-.16-.17-.35-.35-.21-.55-.25-.12-.64-.03-.95-.1,.19-.12,.45-.21,.67-.31-.48-.18-.85-.44-.91-.75-.35-.15-.86-.35-.75-.61-.42,.04-.85,.1-1.25-.01,.24-.12,.84-.22,.57-.44-.24-.16-.16-.48-.68-.49-.3-.11-.22-.37-.65-.45-.48-.35,.19-.41,.6-.48-.21-.22-.41-.48-.2-.72,.74,.35,1.09,.88,1.7,1.29,2.48,1.93,4.68,3.96,6.09,6.15,.28,.64,.78,1.32,.4,1.97-.49,.33-.37,.77-.42,1.15-.14,.03-.28,.06-.43,.08,.08-.18,.32-.52-.31-.39-.13,.24-.62,.52-.08,.71-.18,.24-.11,.48,.2,.69-.3,.34,.03,.77-.45,1.07-.33,.4-.9,.72-1.69,.91-1,.06-1.77,.48-2.81,.47Zm-3.44-.77c.22-.15,.21-.35,.55-.45,.35-.1,.39-.35,.09-.48-.37-.1,.42-.28,.35-.1-.05,.16,.22,.22,.47,.26-.09,.08-.21,.15-.31,.22,.9,.11,.42-.58,.64-.79-.24-.14-.23-.55-.76-.48-.04,.19-.13,.37-.22,.55-.57,.1-.89-.13-.79-.39-.41,0-.95-.07-1.07,.18-.27,.17-.76-.12-1.11,.01-.68,.12-1.38-.15-2.1-.05-.38-.1-.07-.31-.03-.47-.55,.12-1.12,.23-1.73,.3-.27-.21-.67-.08-.98,.03,.29,.23-.18,.13-.48,.11-.99,.32-2.14-.09-3.21,.04,.02-.24-.51-.14-.8-.1-.26-.42-1.46-.19-2.08-.32-.4-.26-1.1-.23-1.64-.39-.47-.14-.97,.02-1.46,.03-.03,.09,.04,.16,.2,.2,1.44,.05,2.6,.56,4.07,.53,.16,.17,.51,.32,.89,.23,.44-.09,.66,.21,1.11,.15,.65,.09,1.81-.08,2.15,.3,.38,.08,.27-.25,.59-.22,.66-.06-.05,.18-.17,.31,.51,.11,1.09,0,1.61,.09,.31,.03,.62,.12,.92,.06,.44-.18,.76-.43,1.17-.62,.33-.18,.63,.12,.56,.27,.44,.22-.89,.55-.07,.61,.72,.11,.46-.37,.91-.5,.37-.34,1.26-.18,1.84-.21-.14,.22-.97,.1-.84,.4,.43,0,.91-.19,1.26,0,.45,.09,.39,.42-.02,.53-.3,.14,.28,.22,.49,.17Zm3.03-.34c.49-.19,1.02-.35,1.54-.51,.54-.11,.27,.45,.73,.44,.34-.14,.27-.39,.28-.6-.37-.19-.11-.57-.72-.66-.18,.37-.8,.65-1.6,.64l-.05-.24c-.56-.1-.95,.35-.51,.5-.04,.14-.16,.51,.32,.43Zm5-3.03c.46-.13,.72-.4,.21-.59,.92-.13,.56-.77,.12-1.05-.72-.04-.31,.37-.29,.56-.48-.01-.13-.4-.64-.32-.54,.09-.09,.42-.18,.62-.25,.11-.58,.15-.89,.2-.07,.14-.22,.26-.38,.38,.7,.01,.92-.46,1.6-.41,.73,.03-.28,.59,.45,.61Z"/><path class="d" d="M52.31,15.77c-.54,.02-.44-.26-.85-.35,.14-.17,.43-.32,.46-.51-.62,.15-1.34,.16-1.96,.32-1-.31-2.12-.59-3.05-.97-.21-.15-.55-.22-.84-.32,.4,0,.99,.2,1.17-.07-.51-.1-1.07-.15-1.58-.25,.27,.23-.26,.17-.56,.17-.09-.13-.03-.27,.01-.41-.32-.01-.63,.03-.92,.1-.01,.12-.12,.31,.23,.31,.24,.11,.58,.21,.61,.38,.02,.25-.69,.08-.76,.3-.29,.21,.3,.26,.54,.37,.05,.13-.18,.2-.33,.28-.22-.06-.42-.13-.65-.19-.21,.04-.4,.1-.61,.14v-.23c.63,.03,.82-.12,.48-.46-.51,.14-.66-.11-.7-.33-.4-.15-.92-.14-.65-.54-.63-.09-.81-.4-1.11-.65-.44-.15-.98-.55-1.54-.28-.39-.21-.67-.47-1.27-.56-.34-.16-1.02,.16-.52,.25,.44-.02,.24,.2,.26,.33-.18-.02-.35-.06-.51-.11-.15-.33-.6-.6-.92-.9-.39,.04-.56-.13-.79-.26-.24-.15-.69-.12-1.04-.13-.22-.1-.3-.3-.67-.3,.06,.17,.15,.33,.15,.5-.61-.29-.94-.71-1.61-.98-.44,.07-.22,.43,.14,.49,.48,.36,1.18,.72,1.16,1.18-.19-.04-.38-.09-.59-.12-.12,.1-.33,.14-.56,.13-.04-.21,.38-.36,.34-.57-.24,.04-.46,.1-.69,.16,.1-.14,.33-.25,.51-.37-.56,0-.58-.17-.51-.48-.2-.1-.64-.07-.6-.26,.08-.27-.73,0-.78-.24,.03-.27-.6-.27-.92-.42-.18-.27-.4-.54-.32-.83,.45-.15,.98-.29,1.51-.33,.25,.12,.52,.24,.79,.34,.05,.13-.55,.26-.09,.36,.44,.02,.8-.2,1.25-.06-.08,.13-.23,.24-.33,.37,.38,.03,.76,.07,1.13,.12-.08,.16-.24,.3-.32,.45,.22,.07,.5,.07,.75,.06,.22-.18,.66-.21,.95-.35,.38,.09,.52,.27,.08,.37,.66-.08,.91,.22,.64,.48,.46-.17,1.06-.09,1.55-.25-.03,.11-.09,.21-.09,.32,.34,.21,1.13,.14,1.29-.12,.39,.14,.88,.25,.83,.54,.2-.04,.68-.03,.52-.19,.21-.33-.37-.46-.8-.57-.1-.2-.55-.18-.86-.27,.09-.13,.17-.26,.21-.39,.66-.05,1.09,.33,1.78,.27,.31,.03,.07,.19,.08,.28,.26,0,.5-.03,.75-.04,.33,.12,.89,.25,.36,.43,.76,0,1.5,.06,2.2,.19-.02,.14-.2,.37,.36,.38,.44,.23,1.07,.27,1.64,.37,1.74-.09,.22,.06,.45,.34,.53,.14,1.63-.15,1.67,.31,.24-.01,.48-.04,.71-.06-.22,.24,.3,.34,.42,.54,.3,.05,.37-.14,.54-.22,.12,.16,.19,.33,.38,.47,.42-.03,.84-.11,1.24,0-.08,.08-.18,.15-.26,.22,.33,.08,.68,.18,1.05,.09,.09,.12,.17,.25,.26,.37,.4,.09,1.06,.03,1.18,.29,.26,.22-.69,.33-.62,.07-.3-.22-1.05-.21-1.44-.01,.03-.13,.09-.27,.14-.4,.21-.25-.9,.13-.99-.12-.18-.24-.76,.06-1.03-.11,.1-.1,.23-.2,.31-.31-.41,.03-.86,.05-1.29,.07,.04-.12,.13-.24,.12-.37-.42-.14-.9-.18-1.39-.11-.07-.12,.1-.4-.35-.31-.6,.07-1.31,.52-.78,.79,.43-.03,.73-.22,1.1-.32,.06,.18-.11,.34-.32,.48,.75-.13,1.5,.14,2.26,0-.16,.22-.84,.15-.98,.33-.14,.36,.69-.12,1,.04,.27,.08-.5,.33-.06,.34,.58-.03,.96,.22,.67,.48,.77-.11,1.63,.06,2.33,.18-.29,.35,.75,.28,1.04,.47-.41,.14-1.18,.08-1.19,.4Zm-8.29-1.75c.03-.11-.02-.22-.19-.31-.3-.17,.08-.51-.95-.25,.08,.28,.64,.49,1.14,.56Z"/><path class="d" d="M47.2,30.12c-.21,.05-.8-.04-.49-.17,.4-.11,.47-.44,.02-.53-.36-.19-.84,0-1.26,0-.14-.29,.69-.17,.84-.4-.58,.04-1.48-.13-1.84,.21-.45,.13-.19,.61-.91,.5-.82-.07,.52-.39,.07-.61,.07-.15-.23-.45-.56-.27-.4,.19-.73,.44-1.17,.62-.31,.06-.62-.04-.92-.06-.52-.09-1.1,.02-1.61-.09,.12-.12,.83-.37,.17-.31-.33-.03-.22,.3-.59,.22-.34-.38-1.49-.21-2.15-.3-.45,.06-.67-.24-1.11-.15-.38,.09-.73-.06-.89-.23-1.47,.03-2.63-.47-4.07-.53-.16-.04-.23-.11-.2-.2,.49-.01,.99-.17,1.46-.03,.54,.15,1.24,.13,1.64,.39,.62,.13,1.82-.1,2.08,.32,.29-.03,.82-.14,.8,.1,1.06-.12,2.22,.29,3.21-.04,.3,.02,.76,.12,.48-.11,.3-.12,.71-.24,.98-.03,.6-.07,1.18-.17,1.73-.3-.03,.15-.35,.37,.03,.47,.72-.11,1.42,.17,2.1,.05,.36-.13,.85,.16,1.11-.01,.12-.25,.65-.18,1.07-.18-.09,.26,.23,.49,.79,.39,.1-.18,.18-.36,.22-.55,.53-.06,.52,.34,.76,.48-.22,.21,.26,.9-.64,.79,.1-.07,.21-.14,.31-.22-.24-.04-.52-.11-.47-.26,.07-.18-.72,0-.35,.1,.31,.13,.26,.38-.09,.48-.34,.11-.33,.31-.55,.45Z"/><path class="d" d="M40.1,28.09c-1,0-2.02,.02-3.03-.07-.54,.02-.97-.2-1.52-.19-.93-.39-2.54-.11-3.32-.63-.59-.04-1.19-.16-1.8-.15-.32-.28-1.04-.26-1.53-.43-.99-.19-2.04-.31-2.96-.6-.84-.05-1.39-.4-2.17-.53-.46-.11-1.03-.14-1.4-.34-.82,.15-.65-.35-1.22-.37-.56-.16-1.51-.05-1.65-.45-.34-.02-.64-.08-.73-.27,.53,0,1.1-.16,1.58,0,.25,.09,.55,0,.82,0-.04,.13-.12,.26-.15,.38,.59,.04,1.19,.04,1.76,.1-.01,.18-.74,.08-.65,.31,.46-.01,.95-.04,1.39-.06,.22,.14,.48,.31,.88,.25,.39,.03,1.1,.1,.86,.37,1.12-.21,.6,.13,.59,.34,.36-.03,.54-.22,.89-.25,.08,.1,.12,.21,.24,.3,.32-.02,.64-.05,.96-.02,1.69-.36-.35,.78,1.37,.31,.33-.05,.39,.19,.59,.27,.46-.02,1-.06,1.43-.06-.12,.11-.27,.2-.38,.31,.54,.01,1.09-.11,1.59,.02,.03,.1,.06,.21,.08,.31,.21-.07,.39-.15,.58-.22,.23,.2,.7,.29,1.13,.32,.68-.15,1.4,.08,2.06,.15,.03,.05,.08,.16,.11,.22,.76-.09,1.54,0,2.26,.13,.6,.1,1.39,.32,1.9,.02,.42-.15,.29,.14,.33,.27-.2,.15-.6,.18-.9,.27Z"/><path class="d" d="M50.23,29.78c-.48,.09-.36-.29-.32-.43-.44-.15-.05-.61,.51-.5l.05,.24c.8,.02,1.42-.27,1.6-.64,.61,.09,.35,.47,.72,.66-.02,.21,.06,.46-.28,.6-.47,.01-.19-.55-.73-.44-.52,.16-1.06,.32-1.54,.51Z"/><path class="d" d="M56.38,27.33c.03,.36,0,.94-.78,1.11-.3-.21-.38-.45-.2-.69-.54-.19-.05-.47,.08-.71,.63-.13,.39,.21,.31,.39,.15-.02,.29-.05,.43-.08l.15-.02Z"/><path class="d" d="M49.95,27.79c-.6,.13-1.24,.15-1.89,.17-.34-.17-.16-.61,.46-.57-.58-.25-1.53-.29-2.27-.21-.14,.29,.85,.52,.31,.77-.66-.1-1.29-.23-1.99-.27-.44-.12-.61-.42-1.05-.51-.45,0-.1,.28-.34,.38-.41-.06-.83-.05-1.24,0-.2-.06-.36-.18-.64-.15-.17,.13-.19,.28-.31,.41-.04-.13,.09-.42-.33-.27-.38-.46-1.46-.46-2.32-.48,.23-.16,.57-.22,.94-.26,.23-.14,.49-.26,.87-.21-.16,.11-.34,.22-.5,.33,.29-.03,.55-.1,.76-.19,.36-.22,.94-.04,1.42-.1,.39,.4,1.37,.32,2.13,.35,.29-.13,.45-.48-.55-.25-.05-.16-.12-.34-.41-.44-.23-.16-.63,0-.95-.02,.11-.21,.4-.39,.76-.51,.35-.1,.45-.46-.52-.24-.62-.14,.2-.46,.45-.6,.22,.07,.42,.17,.63,.24,.16-.3-.29-.52-.52-.77-.09-.26-.62-.39-.93-.59-.19-.18-.76-.04-.63,.15,.22,.1,.53,.09,.8,.11,0,.15-.11,.29-.21,.43-.83,.24-1.78-.2-2.68-.09-.99-.06-1.99-.17-2.92-.35-.53-.15-1.25-.04-1.73-.26,.03-.14,.4-.21,.32-.37-.56,.02-1.17-.05-1.68,.09-.27,.04-.59,0-.86-.05-.42-.12-1.05,.03-1.35-.2,.43-.04,.85-.07,1.28-.11,.09-.14-.48-.01-.43-.16-.04-.38-.84,.41-1.25-.02-.58-.13-1.13-.11-1.65,.04-.1-.19-.08-.38-.04-.57-.35,.02-.66,.12-.69,.31-.56,.1-.31-.07-.11-.22-1.78-.27-3.41-.73-5.28-.87-.6,.03-.1,.31,0,.46-.57-.13-1.08,.07-1.65,.09,.73,.23,1.76,.69,2.6,.32,.05,.12,.15,.36,.2,.48,.31,.03,.43-.12,.34-.25-.07-.17,.44-.2,.58-.06-.04,.14-.25,.24-.32,.37,.34,.09,.73,.18,1.12,.17,.43-.02,.53-.31,.96-.33-.04,.14-.11,.28-.15,.41,.31,0,.55-.09,.82-.14,.48,0,.96,0,1.43,.07-.03,.52-1.37-.16-1.78,.28,.49,.03,.92,.21,1.43,.13,.09,.07,.18,.13,.26,.2,.25-.08,.45-.21,.76-.23-.07,.12-.2,.22-.32,.33,.38,.06,.74,.11,.52,.34,.31-.11,.61-.22,.87-.35,.06-.24-1.02,.01-.66-.25,.51-.1,1.18-.01,1.68,.11-.55,.13-.8,.39-1.13,.62,.88,.28,.72-.64,1.64-.5,.39,.11,1.27-.05,1.24,.26-.92-.12-1.81,.26-1.8,.72,.84-.4,1.79,.22,2.73-.01,.27-.28-.02-.8,1.05-.49,.45,.23,1.58-.18,1.56,.26-.4,.04-.87,.04-1.28,.1,.07,.22,.6,.01,.83,.14,.39,.19,.49-.16,.79-.23,.38,.04,.75,.1,1.12,.14,.33,.04,.69-.12,.98,0,.68,.24,1.57,.15,2.34,.11-.06,.19,.21,.47-.28,.55-.26,.11-.9,0-.81,.23,.7-.16,1.22,.18,1.43,.48,.06,.13-.27,.17-.47,.15-.48-.04-.95,.07-1.44,.03-.88-.27-.76,.08-.86,.28-.29,.14-.6,0-.9-.05-.24,.1-.02,.37-.35,.38-.67,.08,.22-.39-.35-.45-1.16-.08-2.33-.28-3.51-.23-.22,.03-.07-.2-.32-.18-1.69-.25-3.41-.47-4.98-.87-.5,.11-.78-.23-1.27-.13-.47,.04,.05-.37-.42-.33-.7,.18-1.15-.32-1.83-.14-.35,.03-.19-.21-.17-.3-.41,.16-1.25,.25-1.45-.05,.18,.02,.36,.04,.53,.06-.02-.17-.4-.23-.65-.31-.3,.1-.6,.19-.98,.15-.03-.15,.17-.27,.31-.4-.4-.21-.83,0-.84,.23-.19-.04-.37-.09-.58-.12-.05-.14,.22-.31-.04-.42-.34-.08-.27,.12-.34,.22-.55,.04-.94-.2-1.44-.28-1.19,.39-.79-.5-.25-.21,.32,.19,.8-.03,.79-.23-.45,.01-.89,.05-1.34,.05-.58-.14-1.28-.03-1.86-.22-.1-.19,.42-.15,.63-.23-.11-.2-.48-.11-.77-.08-.06-.12-.04-.26-.21-.37-.45,.14-.95,.12-1.45,.05,.07-.16,.34-.26,.5-.39-.36,0-.52,.18-.74,.29-.22,.03-.66,.08-.88,.11-.13-.25,.28-.36,.54-.52-.7,.09-1.94-.13-2.11,.36,.3,.22,.85-.31,1.25-.07-.04,.13-.12,.26-.16,.39,.27-.02,.52-.06,.79-.07,.12,.1,.18,.2,.25,.31,.56-.09,1.16,.04,1.66-.11,.13,.07,.27,.14,.38,.21-.2,.17-.63,.27-.68,.47,.57,.02,1.38-.21,1.68,.14,.9,0,1.5,.37,2.22,.57-.8-.15-1.16,.3-1.88,.26,.14-.31-.88-.44-1.31-.39-.45,.12-.23,.36-.17,.55,.35-.02,.38-.26,.75-.25-.16,.21-.1,.38,.38,.44,.48-.05,1.32,.06,.97,.37,.45-.12,.79-.02,1.12,.14,.49-.09,.68,.04,.77,.26,.26-.09,.47-.2,.76-.26-.08,.2,.02,.44-.33,.57-.35,.06-.86,.09-1.22,0,.03-.1,.09-.21,.12-.31-.47-.06-.14,.33-.63,.24-.42,.07-.24-.12-.21-.24-.45-.08-.95-.07-1.39-.17-.01-.1,.55-.29,.18-.3-.65,.06-1.61-.36-2.08,.01,.15,.31,.95,.24,1.44,.23-.03,.16-.35,.24-.54,.36-2.15-.61-4.11-1.39-6.2-2.06-.24-.11-.74-.13-.82-.3-.02-.05-.05-.15-.07-.21-1.07-.2-1.84-.65-2.82-.92-.82-.16-1.13-.73-2.11-.71-.94-.2-1.53-.7-2.51-.9-.57-.27-1.22-.58-1.3-.99,.82-.13-.62-.33-.67-.55,.37-.06,.68-.15,.81-.33,.29,.06,.68,.34,.91,.14,.12-.23-.66-.2-.78-.38,.18-.12,.38-.21,.61-.07,.49,.22,.92-.19,1.45-.09,.31,.15,.35,.44,.39,.62,.31-.03,.61-.06,.91-.07,0,.1-.23,.28,.13,.26,.37-.01,.54,.15,.72,.28,.23-.05,.44-.17,.71-.12,.13,.1,.19,.23,.37,.31,.22-.16-.04-.43,.4-.53,.41-.11,.72-.27,.58-.52-.27,.04-.52,.1-.78,.14-.41-.11-.42-.35-.02-.47-.47,0-.88,.14-1.13,.33-.23,.19-.69-.01-.95-.09-.09-.17,.36-.18,.46-.31-.09-.1-.11-.28-.43-.22-.22,.11-.28,.35-.68,.31-.39-.03-.7-.19-1.08-.25-.34-.16-.71-.39-.34-.62,.45-.09,.47,.11,.51,.28,.29,.07,.57,.15,.87,.19,.1-.17,.28-.38-.01-.53-.14-.15-.5,0-.75-.02,.11-.21,.39-.38,.71-.52,.28-.12,.24,.1,.31,.18,.58-.05,1.7,.41,1.9-.03-.21,.02-.43,.04-.65,.05-.11-.13-.2-.26-.2-.4,.48,.17,1.07,.16,1.62,.18,2.53,.61,5.01,1.29,7.51,1.91,.3,.31,1.18,.22,1.54,.5,.69,0,1.08,.43,1.82,.32,.54,.2,1.12,.36,1.79,.4,3.51,.81,7.25,1.4,10.96,1.95,.5,.09,1.11,.02,1.48,.23,.32,.15,.85,.02,1.23,.03-.05,.16-.37,.54,.59,.2,.36-.02,.9-.1,.66-.34-1.11-.42-1.59-1.13-2.7-1.54-.85-.42-1.37-1-2.23-1.44-1.27-.86-2.52-1.73-3.72-2.62-.78-.4-1.34-.89-1.92-1.36-1.8-1.13-3.26-2.41-4.63-3.69-.53-.27-.65-.69-.96-.99,.78-.25-.37-.54-.13-.86,.36-.31-.3-.54-.14-.84-.07-.22,.23-.5-.32-.6-.03-.3-.03-.59,0-.89-.06-.21,.91-.43-.5-.3-.05-.01-.17-.04-.22-.06,.08-.28,.35-.54,.85-.69,.23-.05,.47-.31,.12-.33-.6,.03-.12-.3-.26-.46-.36-.26-.04-.57,.05-.85,.32-.26,.93-.27,1.34-.06,.24-.14,.45-.29,.63-.45-.22-.03-.45-.06-.66-.12,.17-.29,.63-.51,1.12-.68l-.11-.02c.09-.1,0-.17-.17-.24,.35-.1,.68-.27,1.11-.25,0,.2-.51,.28-.49,.47,.26,.06,.53,.04,.8,.03,0,.11,0,.22-.18,.29-.15-.04-.3-.09-.46-.14-.08,.15-.36,.36,0,.46,.49,.13,.17,.46,.49,.64,.52-.05,.78-.3,.76-.55-.09-.27-.34-.55-.23-.84,.4-.2-.05-.39-.23-.53,.45-.28,.48-.62,.49-.95,.13-.11,.35-.27,.59-.28,.29,.04,.59,.05,.88,.06-.2,.18-.54,.33-.51,.55,.53-.02,.53-.38,.82-.56,.58-.32,1.5-.32,2.26-.47,.24-.04,.59-.02,.61,.13-.38,.19-.94,.22-1.38,.36-.21,.19-.36,.4-.38,.62,.46,0,.92-.11,1.24-.27,.02-.4,.88-.7,1.67-.62,.6-.05,.87,.38,1.53,.29,.53,.11,1.65,.04,1.24,.44,.38-.03,.73-.1,1.09-.17,1.01,.24,1.99,.5,3,.73l.02,.06c-.08,.3,.59,.34,.98,.41,.32,.34,1.38,.12,1.54,.51,.73-.09,.87,.36,1.52,.35,.35-.01,.44,.16,.57,.28,.95-.03,1.44,.44,2.31,.53,.64,.1,1.04,.49,1.75,.43,.34,.16,.63,.35,1.02,.47,.35-.02,.78-.08,.95,.11,.43,.34,1.42,.19,1.85,.51,.25,.21,.85,.06,1.14,.24,.2,.11,.46,.16,.74,.1,1.83,.32,3.5,.88,5.23,1.33,.08,.18,.15,.35,.21,.53,.3-.04,.59-.13,.9-.13,.3,.12,.51,.27,.58,.46,.23-.02,.4-.1,.59-.15,.45,.13,.71,.47,1.31,.37,1.63,.43,3.22,1.06,5.12,1.22,1.31,.2,2.46,.58,3.68,.88,.36,.09,.79,.11,1.09,.25,.47,.42,1.6,.44,2.36,.67,1.41,.25,2.73,.61,4.19,.8,.62,.26,1.53,.17,2.17,.42,1.66,.2,3.31,.49,4.99,.65,.09-.27-.58-.34-.56-.61-.6-.13-.59-.44-.79-.71-.69-.06-.19-.53-.77-.67-.38-.65-1.79-1.16-1.68-1.9-.52-.1-.8-.34-1.02-.59-.21-.39-.93-.62-1.14-1.02-.01-.36-.76-.48-.93-.81,.15-.21,.9-.54-.51-.33,.4-.42-.36-.8-.04-1.23-.97,0,.23-.9-.92-.85,.09-.26,.27-.52,.48-.77-.71-.2-.65-.64-.47-.99,.22,.05,.42,.11,.58,.2-.06,.18-.15,.36-.44,.48,1.4,.27,.5-.34,.71-.62,.26-.21,.69-.4,.59-.67-.23,.08-.42,.17-.65,.25v-.24c.19-.12,.02-.25,.05-.38,.32-.19,.43-.53,1.03-.53,.56-.2,.11-.62,.54-.84,.52,.02-.08,.31,.33,.38,.36,.09,.28-.11,.32-.22,.21-.22,.24-.55,.81-.62,.36-.09,.46,.17,.58,.28-.4,.22-1.15,.38-.94,.74,.99,.04,.5-.72,1.41-.72,.02,.04,.05,.11,.07,.15,.35-.21,.92-.1,1.38-.07,.33,.35,1.17,.44,1.76,.64,.18,.08,.44,.06,.66,.07-.05-.08-.1-.16-.15-.25,.38,.07,.38,.36,.82,.4,1.04,.26,1.79,.83,2.19,1.33-.16,.32,.07,.65-.08,.97-.17,.05-.64,.2-.66,.02,.07-.27-.5-.09-.81-.09,.03-.15,.12-.31-.03-.46-.15,.02-.72-.1-.59,.05,.11,.01,.33,.04,.45,.05,.06,.19-.47,.34-.12,.51,.34,.09,.76,.09,1.08,.19,.12,.19-.31,.19-.56,.19-.17,.11-.37,.22-.66,.25-.17-.12-.38-.24-.52-.37,.03-.12,.45-.3,.06-.36-.41-.22-.96,0-1.21,.19,.31,.08,.64,.06,.96,.03,.07,.47,.1,.95,.28,1.41-.35,.17-.94,.1-1.38,.18,0,.35,.48,.65,.51,1.01,.2-.02,.39-.04,.58-.06-.22,.24,.2,.44,.14,.69,.21,.14,.22,.31-.14,.38-.37-.03-.74-.01-1.11,.03-.19-.33,.59-.19,.98-.32-.09-.1-.24-.19-.49-.14-.58,.07-1.14,.04-1.73-.01,.06,.13,.12,.27,.13,.4-.22,0-.45,0-.68,0,.08-.11,.21-.2,.32-.3-.3-.02-.6-.06-.91-.08-.18,.18-.3,.42-.8,.42-.25,.36,.54,.15,.89,.08,.11,.13,.23,.25,.34,.37-.21,.13-.78-.11-.77,.08-.16,.35,.81-.08,1,.13,.18,.27,.56,.52,.31,.8,1.15-.02,1.11,.72,1.27,1.12,.19-.05,.37-.11,.57-.16-.01,.19,0,.37-.02,.56,.14,.13,.49,.08,.72,.11,.09,.18-.27,.25-.48,.35,.34,.12,.77,.1,1.11,.2,.24,.3-.71,.21-.64,.47,.37,.04,.86-.17,1.11,.02,.12,.2-.37,.32-.29,.51,.83-.03,.34,.38,.14,.58,.47,.08,.65-.11,.72-.31,.66-.04,.4,.41,.43,.63-.17-.06-.33-.25-.54-.1-.57,.16-.38,.74-1.41,.5-.44-.04-.71,.14-.96,.29,.36,.01,.58,.12,.76,.26,0-.15,.36-.53,.66-.29,.48,.44-.25,.49-.76,.63-.23,.47-.17,1.27-1.5,1.33,0-.31,1.1-.69,.31-.92-.2-.02-.41-.04-.62-.05,.19-.11,.58-.15,.64-.29-.55-.28-1.37,.02-1.99-.19-.19-.11-1.29,0-1.12-.29-.3-.07-.61-.04-.87,.05-.47-.19-1.15-.09-1.71-.18-.48-.14-.93-.3-1.45-.4-.11,.08-.29,.18-.49,.09-.62-.11-.92-.47-1.69-.39,.12-.2,.61-.31,.51-.54-.62,.01-.78,.48-1.47,.41,.17-.21,.37-.42,.55-.63,.42,.05,.92,.26,1.2-.02-.04-.26-.75-.04-1.08-.15-.39-.14-.88,.05-1.26-.09-.63-.22-1.05,.32-1.63,.32-.71-.21-1.54-.32-2.22-.57-.17-.1-.69,0-.68-.15-.09-.21,.56-.27,.85-.17,.37,.13,.8,.02,1.2,.03,.3,.09,.07,.25,.07,.38,.66,.16,1.4,0,2.09,0-.24-.12-.52-.22-.82-.29-.21,.05-.41,.12-.64,.16,.04-.11,.1-.21,.13-.32-.4-.11-.92-.09-1.31-.23-.31-.13-.69,0-1.05,0,.04-.08,.08-.16,.11-.25-.24-.01-.58,.11-.72-.03-.19-.22-.56-.02-.86,.02-.15-.07-.1-.18-.11-.27-.24-.06-.42-.15-.6-.25-.39-.06-.79,.05-1.18,.08-.27,.11-.4,.33-.83,.3,0-.13,.26-.33-.17-.36,.24-.09,.68-.1,.64-.29-.37-.03-.85,.16-1.12-.01-.04-.15,.08-.3,.11-.45-.22-.2-.55,.07-.68,.18-.17,.25-.89,.47-1.38,.29-.38-.1-.8-.14-1.21-.19,.02-.22,.47-.54-.71-.3-.39,.04-.47-.19-.69-.3-1.3-.27-.54,.17-.97,.42-.05,.17,.11,.36-.13,.52-.46,.04-.84-.13-1.16-.27-.21,.12-.96,.25-.55,.42,.26,.18,.72,.04,1.07,.03,.28,.09-.15,.31,.25,.35,.92-.15,.77,.32,1.25,.48,.37,0,.72-.02,1.07-.04,.32,.08,.06,.25,.05,.38,.24,0,.72,.02,.97,.02-.2,.11-.37,.27-.67,.31-.99-.06-1.87-.78-2.89-.41-.03-.21-.13-.49-.65-.53-.69,.14-.95-.43-1.64-.29-.45,.11-.13-.25-.45-.28-.62-.09-1.15-.31-1.75-.41-.4,.09-1.03,.14-1.16,.38,.6-.17,1.05,.17,1.63,.06,.2,.11,.24,.29,.49,.36,.44-.26,1.08,.03,1.01,.3,.52-.09,.96,.08,1.42,.18,.17,.19,.53,.28,.85,.4-.24,.26-1.08,.17-1.32,0,.06-.25-.64-.11-.62,.06-.73,.07-.74,.42-.6,.71,.37,.25,.85,.44,1.03,.76,.44,.2-.09,.3-.35,.4-.37,.09-.72-.02-1.05-.09,.09-.07,.18-.14,.26-.22-.39-.11-.82-.04-1.24,0-.19-.14-.26-.31-.38-.47-.17,.08-.24,.27-.54,.22-.12-.2-.65-.3-.42-.54-.24,.02-.47,.05-.71,.06-.04-.45-1.14-.17-1.67-.31-.24-.28,1.29-.43-.45-.34-.57-.1-1.2-.14-1.64-.37-.56,0-.38-.23-.36-.38-.71-.13-1.45-.19-2.2-.19,.54-.18-.03-.31-.36-.43-.25,.01-.49,.03-.75,.04,0-.09,.23-.25-.08-.28-.69,.06-1.12-.32-1.78-.27-.04,.14-.13,.27-.21,.39,.31,.09,.76,.07,.86,.27,.42,.12,1.01,.25,.8,.57,.16,.16-.32,.15-.52,.19,.05-.28-.44-.39-.83-.54-.16,.27-.95,.33-1.29,.12,0-.11,.06-.21,.09-.32-.49,.15-1.09,.08-1.55,.25,.27-.26,.01-.56-.64-.48,.44-.1,.3-.28-.08-.37-.29,.14-.73,.17-.95,.35-.25,0-.52,0-.75-.06,.08-.16,.24-.3,.32-.45-.37-.05-.75-.08-1.13-.12,.1-.12,.25-.24,.33-.37-.45-.14-.82,.07-1.25,.06-.47-.1,.13-.23,.09-.36-.27-.11-.54-.22-.79-.34-.54,.04-1.07,.18-1.51,.33-.08,.29,.14,.56,.32,.83,.32,.15,.95,.15,.92,.42,.06,.24,.86-.02,.78,.24-.04,.19,.4,.16,.6,.26-.07,.31-.05,.48,.51,.48-.18,.12-.41,.23-.51,.37,.23-.05,.45-.12,.69-.16,.04,.21-.37,.36-.34,.57,.23,.02,.45-.03,.56-.13,.21,.03,.4,.08,.59,.12,.02-.46-.68-.82-1.16-1.18-.37-.06-.58-.42-.14-.49,.67,.27,1,.69,1.61,.98,0-.17-.09-.33-.15-.5,.37,0,.45,.19,.67,.3,.35,.01,.8-.02,1.04,.13,.23,.12,.4,.3,.79,.26,.33,.29,.78,.56,.92,.9,.17,.05,.34,.09,.51,.11-.02-.13,.18-.35-.26-.33-.5-.1,.18-.41,.52-.25,.59,.08,.87,.35,1.27,.56,.55-.26,1.09,.13,1.54,.28,.3,.25,.48,.56,1.11,.65-.27,.41,.26,.39,.65,.54,.04,.22,.19,.46,.7,.33,.34,.35,.15,.5-.47,.46v.23c.21-.04,.4-.09,.61-.14,.23,.06,.43,.13,.65,.19,.15-.08,.38-.16,.33-.28-.23-.11-.83-.16-.54-.37,.07-.22,.78-.04,.76-.3,1.12,.69,2.02,1.49,3.01,2.24,.1,.14,.54,.21,.43,.37-.21,.24,0,.5,.2,.72-.41,.07-1.08,.12-.6,.48,.43,.08,.35,.34,.65,.45,.52,0,.44,.32,.68,.49,.27,.22-.32,.31-.57,.44,.4,.11,.83,.05,1.25,.01-.11,.26,.4,.46,.75,.61,.06,.31,.43,.57,.91,.75-.23,.1-.49,.19-.67,.31,.31,.07,.7-.02,.95,.1-.14,.2,.05,.37,.21,.55-.62,.1-.73-.16-.85-.39-.53,.02-.93,.19-1.3,.36-.24,0-.49-.02-.63,.1,.67,.12,1.14-.09,1.5-.31,.63,.08,.05,.35-.18,.48,.17-.02,.33-.03,.49-.05,.11,.15-.04,.33,.18,.45,.31,.03,.49-.12,.62-.23-.08-.08-.36-.13-.31-.24,.16-.13,.49-.1,.74-.08,.1,.23,.45,.47,.22,.71-.17,.14,.13,.36-.23,.44-.34,.11-.35,.49,.19,.47,.07,.2,.36,.48-.12,.59,.13,0,.37,.02,.5,.02-.15,.18-.66,.31-.16,.54,.34,.25,.35,.73-.42,.76-.53-.36-1.01,.16-1.36,.35,.46,.07,.95,.05,1.42,.03,.45,.15-.24,.22-.44,.32,.26,.2,.07,.47,.45,.62-.15,.1-.32,.19-.46,.29,.41,.04,.95,.18,.95,.41-.36,.2-1.13,.15-1.41-.08,0-.15,.11-.29,.12-.44-.43-.1-.76-.12-1.3-.09,.07,.18,.33,.33,.52,.48-.22,.1-.49,.27-.81,.15-.41-.13-.87,0-1.31,.02,.19,.2,.64,.05,.94,.16,.1,.09,.19,.18,.2,.28Zm-12.57-4.54c.21-.03,.45-.06,.36-.2-.4-.04-.98-.02-1.19-.23-.21-.25-.98,.02-1.32-.14-.34-.18-.81-.12-1.28-.15-.22-.22-.83-.18-1.24-.27-.32-.08-.86,.19-.98-.08-.2-.03-.42-.05-.48-.17-.65-.07-1.33-.1-2-.11-.02-.05-.05-.16-.07-.22-.86-.01-1.66-.17-2.48-.28-.46-.33-1.37,.29-.59,.38,.88-.07,1.62,.27,2.48,.35,.94,.09,1.81,.25,2.72,.39,.84-.04,1.5,.34,2.35,.3,.76,.21,1.67,.12,2.46,.29,.41,.03,.82,.22,1.25,.13Zm-16.56-1.03c.52-.33,1.91-.35,1.82-.85-.6-.03-1.28,.04-1.76-.18,.03-.08,.07-.16,.13-.24-.26,.02-.51,.07-.77,.09-.46-.1-.9-.35-1.45-.25-.4,.07,.07-.34-.33-.31-.6,.2-.92-.29-1.45-.09-.38,.09-.41-.16-.37-.29-.41-.15-.9-.03-1.36-.08-.18,.07-.17,.19-.23,.29-.99-.37-.97,.45-.29,.32,.33-.08,.66,.01,.99,.02,.03-.16-.36-.23-.35-.4,1.17-.31,.92,.29,.61,.53-.32,.08-.69,.12-.98,.23-.35,.13-.55-.15-.91-.13-.49,.02-.5-.22-.5-.4-.5,.15-.94-.06-1.39-.15-.24,.1-.42,.22-.36,.38,.67,0,1.66-.07,1.65,.39,.25,.01,.76,.03,1.01,.04,.43,.09,.27,.47,.84,.36,.51-.12-.23-.41,.23-.54,.26,0,.49,.09,.75,.07,.21-.11,.17-.28,.38-.39,.34-.05,.65,.09,.98,.03,.24-.07,.47,.28,.12,.2-.44-.12-1.23,.02-1.12,.3,.31,.02,.68,.16,.92,0,.18-.11,.69-.07,.65,.09-.16,.19-.58-.06-.75,.11-.21,.35,1.17-.07,1.14,.29,.61,.11,.88-.24,.96-.47,.26,.08,.37,.23,.55,.35,.35,.26-1.15,.22-.55,.43,.87-.31,.63,.37,1.2,.24ZM77.29,4.06c-.19-.42-.64-.82-.81-1.27,.21-.15,.42-.29,.32-.49-.21,.07-.42,.21-.7,.12-.22-.08-.55,.07-.38,.18,.49,.18-.08,.55,.4,.76,.53,.22-.1,.97,1.17,.7Z"/><path class="d" d="M55.23,26.76c-.73-.02,.28-.58-.45-.61-.68-.06-.9,.42-1.6,.41,.16-.12,.31-.24,.38-.38,.31-.05,.65-.09,.89-.2,.1-.2-.36-.53,.18-.62,.51-.08,.16,.31,.64,.32-.02-.19-.43-.6,.29-.56,.45,.28,.81,.92-.12,1.05,.51,.19,.24,.46-.21,.59Z"/><path class="d" d="M37.38,23.25c-.43,.09-.83-.1-1.25-.13-.79-.17-1.7-.08-2.46-.29-.85,.03-1.51-.34-2.35-.3-.9-.14-1.78-.3-2.72-.39-.85-.08-1.6-.43-2.48-.35-.78-.09,.13-.71,.59-.38,.82,.12,1.63,.27,2.48,.28,.02,.05,.05,.16,.07,.22,.67,0,1.34,.05,2,.11,.06,.12,.28,.14,.48,.17,.11,.27,.65,0,.98,.08,.41,.09,1.03,.05,1.24,.27,.47,.03,.94-.03,1.28,.15,.34,.16,1.11-.12,1.32,.14,.21,.21,.79,.18,1.19,.23,.08,.14-.16,.17-.36,.2Z"/><path class="d" d="M9.48,23.03c-1.17-.3-2.14-.76-3.26-1.1-.49-.29-1.33-.42-1.74-.74,.98-.02,1.29,.55,2.11,.71,.99,.27,1.76,.73,2.82,.92,.02,.05,.05,.15,.07,.21Z"/><path class="d" d="M84.39,22.13c-.68,.16-1.57,.34-2.29,.13-.83,.14-1.63-.02-2.41-.16-.67,.13-1.34-.13-2.03-.12-.06-.18-.45-.07-.71-.08-.96-.08-1.83-.32-2.78-.42-.23-.01-.32-.08-.27-.2,1.67,.31,3.46,.42,5.21,.6,1.34-.02,2.62,.27,3.96,.15,.45,0,.93-.03,1.32,.11Z"/><path class="d" d="M20.83,22.21c-.57,.13-.33-.55-1.2-.24-.6-.21,.9-.17,.55-.43-.18-.11-.29-.27-.55-.35-.08,.23-.34,.59-.96,.47,.03-.37-1.35,.06-1.14-.29,.17-.17,.59,.09,.75-.11,.03-.16-.48-.2-.65-.09-.23,.16-.61,.02-.92,0-.12-.29,.68-.43,1.12-.3,.34,.08,.12-.27-.12-.2-.32,.06-.64-.07-.98-.03-.21,.11-.17,.28-.38,.39-.26,.02-.49-.06-.75-.07-.45,.12,.28,.42-.23,.54-.57,.11-.41-.26-.84-.36-.25-.01-.76-.03-1.01-.04,.01-.46-.97-.39-1.65-.39-.06-.16,.12-.28,.36-.38,.46,.09,.89,.3,1.39,.15,0,.18,.01,.43,.5,.4,.36-.03,.56,.25,.91,.13,.29-.12,.65-.15,.98-.23,.31-.24,.56-.84-.61-.53,0,.16,.38,.23,.35,.4-.33,0-.66-.1-.99-.02-.67,.14-.7-.69,.29-.32,.06-.1,.05-.22,.23-.29,.46,.05,.95-.08,1.36,.08-.04,.13-.01,.38,.37,.29,.53-.19,.85,.29,1.45,.09,.4-.03-.07,.38,.33,.31,.54-.1,.98,.14,1.45,.25,.26-.02,.51-.07,.77-.09-.06,.08-.1,.16-.13,.24,.48,.22,1.16,.15,1.76,.18,.09,.5-1.3,.51-1.82,.85Z"/><path class="d" d="M85.15,22.08c-.23,.06-.51,.12-.76,.05-.39-.14-.87-.11-1.32-.11-1.34,.12-2.62-.17-3.96-.15-1.74-.18-3.54-.29-5.21-.6-.37-.08-.74,0-1.12,0-.46-.1-.88-.25-1.4-.26-.02-.12-.16-.12-.34-.07,.01-.12-.12-.13-.31-.08-.1-.23-.66-.15-.99-.22-1.64-.47-3.49-.73-5.12-1.21-.66-.24-1.54-.36-2.15-.61,.6-.16,.74-.66,1.64-.48,.39,.02-.58-.41,.05-.27,.81-.04,.02,.69,1.24,.35,.45-.02,.86,.08,1.24,.18,.16,.17-.31,.14-.5,.2,1.01,0,2.03,.11,2.88,.38,.55,.19,1.28,.15,1.89,.25,.67-.13,.75,.25,1.28,.25,.89-.01,1.62,.36,2.49,.29,.61,.2,1.41,.08,2.02,.25,1.37,.31,2.87,.06,4.22-.15,.29-.12,.48-.31,.85-.37,.24,.06,.45,.15,.66,.23-.54,.11-.98,.31-1.56,.37-.34,.01-.24,.21-.02,.27,1.2,.11,2.22-.31,3.05-.67,.41,0,.81-.02,1.21-.01,.38,.05,.01,.33-.28,.29-.76,.03-.54,.53-.45,.79,.24,0,.73,.02,.98,.03-.66,.36-1.58,.58-2.54,.67-.47,.09-1.11,.02-1.4,.26,1.26-.05,2.75,0,3.74-.46,.77-.54,.19,.2,.74,.05,.09-.18,.25-.37,.71-.3-.03,.16-.13,.32-.17,.48,.6-.06,.7-.42,1.27-.49,.56-.07,.51-.47,1.11-.5,.01-.08,.17-.28-.13-.28-.68,0-.33-.48-.05-.65,.06,.21,.59,.16,.83,.3,.25-.23,.85-.42,.7-.7-.23-.29,.94-.17,.75-.46-.08,0-.24-.02-.32-.02,.67-.1,1.25-.29,1.93-.39,.18,.49-.14,.97-.43,1.43,.36,.24,.85-.1,.66-.3,.26-.24,.11-.52,.16-.78,.33-.16,1.03-.21,.59-.59,0-.17-.53,.05-.75,.07-.61-.15-1.18,.16-1.79,.21-.23-.02-.51-.03-.6-.17,.38-.12,.76-.25,1.12-.38,.3-.1,.4,.15,.59,.22,.32-.07,.42-.24,.55-.39,.33-.15,.76-.27,1.21-.27,.08,.2-.27,.33-.48,.47,.2,.03,.4,.05,.6,.07,.06-.24,.6-.54,.12-.74-.2-.43,.58-.76,1.01-1.09,.07,.53-.05,1.06-.18,1.58-.92,.56-.57,1.35-1.39,1.94-1.37,1.17-4.2,1.41-6.42,2-.61,.16-1.33,.15-1.94,.31Z"/><path class="d" d="M33.51,21.96c-.97,.34-.65-.04-.59-.2-.38,0-.9,.12-1.23-.03-.37-.2-.99-.14-1.48-.23-3.72-.55-7.46-1.14-10.96-1.95-.67-.04-1.25-.2-1.79-.4-.73,.11-1.13-.31-1.82-.32-.37-.28-1.24-.19-1.54-.5,1.53,.21,2.9,.66,4.4,.93,2.94,.52,5.77,1.19,8.8,1.54,2.08,.29,4.14,.62,6.29,.79-.5-.57-1.71-.93-2.11-1.52,1.11,.41,1.6,1.12,2.7,1.54,.24,.23-.31,.31-.66,.34Z"/><path class="d" d="M44.02,14.03c-.5-.07-1.07-.28-1.14-.56,1.03-.26,.66,.08,.95,.25,.17,.08,.22,.2,.19,.31Z"/><g><path class="d" d="M85.16,21.45c-1,.46-2.48,.41-3.74,.46,.3-.24,.94-.16,1.4-.26,.96-.09,1.88-.31,2.54-.67,.56-.16,1.03-.46,1.7-.5,.44,.15-.05,.31-.31,.4,.33,.02,.61-.04,.76-.19,.37-.4,.58-.83,.86-1.24-.17-.3-.04-.61,.53-.78,.72,.03,1.43,.04,2.07-.15,.61-.05,1.18-.35,1.79-.21-.06,.05-.17,.14-.22,.18-.67,.09-1.26,.29-1.93,.39-.98,.07-1.43,.53-1.96,.89-.29,.17-.63,.66,.05,.65,.29,0,.14,.2,.13,.28-.6,.03-.55,.43-1.11,.5-.58,.07-.68,.44-1.27,.49,.05-.16,.14-.32,.17-.48-.46-.07-.62,.12-.71,.3-.55,.14,.04-.59-.74-.05Z"/><path class="d" d="M86.61,19.05c-1.07,.1-1.8,.6-2.92,.64,.15-.36,1.35-.29,1.64-.65-.4,0-.8,.09-1.2,.03-.2-.01-.45-.07-.6,.03-.32,.15-.66,.29-1.09,.37-.08,0-.23-.03-.31-.04-.04-.15-.12-.3-.17-.46,.45-.07,.84-.25,1.25-.32,.63,.31,1.34-.02,1.94-.17,.24,.06,.39,.2,.66,.22,.98-.2,.73,.13,.8,.34Z"/></g><path class="d" d="M73.65,2.89c-.21,.28,.69,.89-.71,.62,.29-.12,.38-.3,.44-.48-.16-.08-.37-.14-.58-.2-.07-.26,.37-.5,.8-.61v.24c.22-.08,.41-.17,.64-.25,.11,.27-.33,.46-.59,.67Z"/><path class="d" d="M87.05,20.49c-.67,.04-1.14,.33-1.7,.5-.24,0-.73-.03-.98-.03-.09-.26-.31-.76,.45-.79,.3,.03,.66-.24,.28-.29-.4,0-.79,0-1.21,.01-.83,.37-1.86,.79-3.05,.67-.22-.06-.32-.26,.02-.27,.58-.06,1.02-.27,1.56-.37-.21-.08-.42-.16-.66-.23-.38,.06-.56,.25-.85,.37-1.34,.21-2.85,.46-4.22,.15-.62-.17-1.42-.06-2.02-.25-.87,.08-1.61-.3-2.49-.29-.53,0-.61-.38-1.28-.25-.61-.1-1.34-.06-1.89-.25-.85-.27-1.87-.38-2.88-.38,.19-.06,.66-.03,.5-.2-.38-.1-.79-.2-1.24-.18-1.22,.34-.43-.39-1.24-.35-.63-.14,.34,.29-.05,.27-.9-.18-1.05,.32-1.64,.48-.79-.1-1.43-.42-2.22-.56-1.83-.56-3.74-1.06-5.61-1.6-1.41-.55-3.31-.87-4.66-1.42,.62-.16,1.33-.17,1.96-.32-.03,.2-.32,.34-.46,.51,.41,.09,.31,.37,.85,.35,.01-.32,.78-.26,1.19-.4-.29-.19-1.33-.12-1.04-.47-.69-.12-1.55-.29-2.33-.18,.29-.26-.09-.5-.67-.48-.44,0,.33-.26,.06-.34-.31-.16-1.14,.32-1-.04,.13-.18,.82-.11,.98-.33-.76,.13-1.51-.14-2.26,0,.21-.14,.38-.29,.32-.48-.38,.09-.68,.29-1.1,.32-.53-.27,.18-.72,.78-.79,.44-.09,.27,.18,.35,.31,.49-.07,.97-.04,1.39,.11,0,.13-.08,.25-.12,.37,.43-.02,.88-.04,1.29-.07-.08,.11-.21,.21-.31,.31,.27,.18,.85-.12,1.03,.11,.08,.25,1.2-.13,.99,.12-.05,.13-.11,.27-.14,.4,.39-.19,1.14-.2,1.44,.01-.07,.26,.88,.15,.62-.07-.12-.26-.78-.2-1.18-.29-.09-.12-.17-.24-.26-.37,.27-.1,.79-.19,.35-.4-.18-.31-.66-.51-1.03-.76-.14-.29-.13-.64,.6-.71-.02-.17,.68-.3,.62-.06,.24,.18,1.08,.27,1.32,0,.65,.28,1.45,.4,2.26,.5-.03,.14,.08,.27,.23,.39-.33,.08-.83,.01-1.04,.18,.21,.46-.54,.51-1.21,.47,.2,.11,.59,.18,.5,.36-.22,.03-.6,0-.46,.17,.35,.05,.72,.06,1.07,.11,.16,.12,.1,.36,.52,.31,.36,.04-.12-.16-.15-.23,.44-.02,1.05-.05,1-.34,.17,.07,.32,.14,.44,.23-.42,.08-.79,.2-.98,.41,.11,.11,.25,.2,.38,.3,.35,0,.8-.15,.98,.07,.17,.19,.6,.05,.89,.04-.04,.1-.09,.2-.13,.3,.27,.13,.69-.06,.93,.09,.51,.38,1.45,.63,2.38,.66,.27,.07,.11,.34,.51,.29,.16-.16,.2-.38,.68-.32-.1,.14-.64,.37-.12,.44,.82-.05,1.08,.39,1.76,.49,.23,.06,1.41-.17,1.12,.19,.16,.28,1.05,.21,1.53,.33,.57,.32,1.58,.3,2.38,.25,.08,.1,.14,.21,.25,.3,.48-.02,.93-.11,1.39-.16,.27,.21,.3,.59,1.09,.44,.37,.05,.8-.09,1.07,.09,.81,.2,1.81,.33,2.71,.19-.18,.19-.95,.53,.43,.35,.75,.11,1.47-.12,2.12-.27,.37-.12,.87-.28,.81-.53-.59,.09-1.1,.04-1.3-.27,.45,.07,.9,.04,1.34-.04,.41,0,.81,.03,1.21-.03,.02,.04,.06,.12,.08,.16-.63,.69-2.03,1.06-3.33,1.39-.87,0-1.82,.24-2.65,.03-.71-.09-1.44-.2-2.19-.21-.41-.27-1.03-.18-1.51-.02,.04-.1,.09-.2,.11-.3-1.18-.22-2.42-.35-3.58-.61-1.08,.16-.62-.24-.58-.45-.49,.02-.95,.07-1.45,.07,.08-.11,.21-.21,.31-.31-.17,0-.6-.17-.59,0,.08,.23-.31,.09-.55,.06-.44-.02-.39-.3-.48-.46-.37-.05-.51,.22-.9,.16-.32-.01-.12-.29-.34-.39-.59,.33-1.11-.26-1.76-.23-.47,.04-1.04-.06-1.3,.2,.62,.04,1.18,.25,1.81,.12-.17,.16-.53,.15-.84,.17,0,.27,.37,.18,.67,.07,.55,.05,1.58-.04,1.14,.46,.63-.18,1.14,.14,1.75,.02,0,.15-.09,.29-.15,.43,.36-.02,.69,.07,.68,.27,.39,.07,.46-.07,.47-.23,.3,.15,.67,.14,1.06,.09-.3,.3,.52,.33,.94,.35,.37,.05,.04,.25,.06,.37,.34,0,.63-.1,.94-.15,1.63,.43,3.41,.7,5.16,.97,1.02-.06,1.91,.22,2.89,.26,.53-.08,1.28-.12,1.62-.36-.13,0-.39-.03-.52-.04,.18-.22,.65-.11,1-.09,.62,.02,1.24-.06,1.85-.08,.27-.06,.56-.39,.85-.2-.15,.13-.4,.22-.49,.37,.48,.06,.76,.11,1.17,.18,.08,0,.23,.03,.31,.04-.14,.16-.47,.54,.62,.2,.43-.05,1.29-.53,.47-.57,.16-.1,.41-.04,.6-.03,.4,.06,.8-.03,1.2-.03-.29,.36-1.49,.28-1.64,.65,1.11-.04,1.85-.54,2.92-.64,.24-.04,.27-.19,.39-.29,.11-.18,.53-.18,.81-.23,.23-.07,.43-.18,.71-.21,.16,.45-.7,.73-1.39,.91-.05,.3-.41,.56-.38,.86,.56-.19,.49-.69,1.25-.78,.13,.05,.25,.09,.36,.14-.28,.41-.49,.84-.86,1.24-.15,.15-.43,.21-.76,.19,.26-.09,.75-.25,.31-.4Z"/><path class="d" d="M89.47,20.06c-.24-.13-.77-.09-.83-.3,.53-.36,.99-.82,1.96-.89,.08,0,.24,.02,.32,.02,.19,.29-.98,.17-.75,.46,.14,.28-.46,.48-.7,.7Z"/><path class="d" d="M88,19.31c-.76,.09-.69,.6-1.25,.78-.03-.3,.34-.56,.38-.86,.69-.18,1.55-.46,1.39-.91-.28,.03-.47,.14-.71,.21-.29,.06-.71,.06-.81,.23-.12,.1-.14,.25-.39,.29-.07-.21,.18-.54-.8-.34-.27-.02-.42-.16-.66-.22-.6,.15-1.32,.48-1.94,.17-.41,.07-.8,.25-1.25,.32,.05,.15,.12,.31,.17,.46-.42-.07-.69-.12-1.17-.18,.09-.14,.34-.24,.49-.37-.29-.19-.58,.14-.85,.2-.61,.02-1.23,.1-1.85,.08-.35-.02-.83-.13-1,.09,.13,0,.39,.03,.52,.04-.34,.24-1.09,.28-1.62,.36-.98-.04-1.88-.32-2.89-.26-1.75-.27-3.53-.55-5.16-.97-.31,.05-.6,.14-.94,.15-.02-.12,.31-.32-.06-.37-.42-.02-1.24-.05-.94-.35-.38,.05-.76,.06-1.06-.09,0,.17-.08,.31-.47,.23,0-.2-.31-.28-.68-.27,.06-.14,.14-.28,.15-.43-.61,.12-1.12-.2-1.75-.02,.44-.5-.58-.41-1.14-.46-.29,.11-.67,.2-.67-.07,.31-.02,.67,0,.84-.17-.63,.13-1.19-.08-1.81-.12,.26-.26,.83-.16,1.3-.2,.65-.02,1.18,.56,1.76,.23,.22,.11,.03,.38,.34,.39,.38,.06,.52-.21,.9-.16,.09,.16,.04,.44,.48,.46,.24,.02,.63,.16,.55-.06,0-.16,.42,0,.59,0-.1,.1-.22,.2-.31,.31,.5,0,.96-.06,1.45-.07-.04,.21-.51,.61,.58,.45,1.17,.26,2.4,.38,3.58,.61-.02,.1-.07,.2-.11,.3,.48-.16,1.1-.25,1.51,.02,.75,0,1.48,.12,2.19,.21,.83,.21,1.78-.03,2.65-.03,1.3-.33,2.71-.69,3.33-1.39,.14-.14,.27-.28,.45-.41,.45-.05,.53,.22,.43,.37-.34,.13-.74,.22-.94,.42-.77,.2-.08,.36,.27,.29,.38-.06,.41,.23,.59,.34,.78,.02,1.09-.34,1.32-.65,.08-.39,.25-.77,.23-1.16-.58,.04-1.2,0-1.73,.14-.04-.16-.16-.32-.33-.46,.24-.19,.48-.39,.5-.62,.65-.13-.19,.52,.12,.54,.71,.01,1.4,.02,2.1,0-.25-.2-.6-.36-1.09-.26-.03-.15-.22-.23-.52-.25,.03-.25,.12-.5,0-.75l.3-.1c.18,.23,0,.52,.36,.72,.4,.06,.65-.12,.88-.25-.28-.28-.49-.57-.68-.88,.58-.56-1.26-.2-.52-.76,.1-.16,.37-.04,.57,0,.04,.1-.16,.24,.04,.3,.7,.19,.18,.71,.62,.97,.28,.15,.4,.35,.56,.53,.54,.1,.66-.23,.94-.38,.46-.2,.63-.56,1.27-.65,0,.28-.34,.52-.78,.67-.16,.22,.24,.4,.34,.6,.37-.2,.77-.44,1.38-.4-.69-.24-.29-.97,.59-.96-.17,.24,.24,.51-.13,.71-.37,.25,.25,.48,.62,.6,.57,.31,1.13-.36,1.82-.19,.38,.02,.39-.26,.77-.24,.09,.12-.1,.4,.33,.31,.32-.23,.12-.57,.5-.8-.02,.33-.18,.66-.3,.98,.52-.06,.85-.35,1.41-.33,.09,.27,.11,.39,.13,.62-.45,.28-.93,.55-1.52,.77-.09,.16,.18,.3,.25,.45-.07,.16-.19,.32-.33,.47-.63-.07-1.28-.02-1.88,.11-.11,.2,.31,.29,.54,.4,.09,.13,.37,.14,.6,.17-.64,.19-1.35,.18-2.07,.15-.57,.17-.7,.48-.53,.78-.12-.05-.24-.09-.36-.14Zm-1.14-1.41c.41-.11,1.06,.09,1.29-.15,.15-.21,.18-.46,.56-.6,.22,.04,.43,.09,.6,.16,.16,.19-.32,.27-.3,.45,.32,.04,.63,.1,.96,.1,.13-.19-.22-.16-.48-.18,0-.5,.67-.96,.46-1.48-.29-.16-.82,0-1.23-.1-.07,.22-.23,.51-.8,.5-.06,.25-.49,.48-1.02,.47,.12,.11,.44,.11,.63,.16-.1,.19-.48,.4-.89,.36-.17-.13-.43-.11-.68-.04-.19,.25,.49,.43,.9,.35Z"/><path class="d" d="M92.76,19.61c.19,.2-.3,.54-.66,.3,.29-.46,.61-.94,.43-1.43,.06-.05,.17-.14,.22-.18,.22-.02,.76-.24,.75-.07,.44,.37-.25,.42-.59,.59-.04,.26,.11,.54-.16,.78Z"/><path class="d" d="M83.06,19.68c-1.09,.34-.76-.04-.62-.2,.43-.07,.77-.22,1.09-.37,.82,.04-.04,.52-.47,.57Z"/><path class="d" d="M6.24,19.29c-.18-.08-.24-.21-.37-.31-.27-.05-.48,.07-.71,.12-.18-.13-.35-.29-.72-.28-.36,.02-.12-.16-.13-.26-.31,0-.61,.05-.91,.07-.04-.18-.08-.47-.39-.62-.53-.1-.96,.31-1.45,.09-.24-.14-.44-.05-.61,.07-.05-.02-.15-.06-.21-.08,.1-.2,.45-.34,.84-.39,.3,.11,1.02,.3,1.02-.02,.38,.06,.69,.22,1.08,.25,.4,.04,.46-.2,.68-.31,.32-.06,.34,.12,.43,.22-.11,.13-.56,.14-.46,.31,.26,.08,.72,.28,.95,.09,.25-.2,.66-.32,1.13-.33-.39,.13-.39,.36,.02,.47,.27-.04,.52-.11,.78-.14,.13,.25-.17,.41-.58,.52-.43,.1-.17,.37-.4,.53Z"/><path class="d" d="M82.99,17.9c-.23,.31-.54,.68-1.32,.65-.18-.11-.21-.4-.59-.34-.35,.08-1.03-.08-.27-.29,.19-.2,.6-.29,.94-.42,.11-.16,.02-.42-.43-.37-.18,.13-.31,.27-.45,.41-.02-.04-.06-.12-.08-.16-.4,.05-.81,.03-1.21,.03-.44,.08-.89,.1-1.34,.04,.21,.3,.71,.35,1.3,.27,.06,.26-.45,.41-.81,.53-.65,.16-1.37,.38-2.12,.27-1.38,.19-.62-.16-.43-.35-.9,.14-1.89,0-2.71-.19-.27-.18-.71-.04-1.07-.09-.79,.15-.82-.23-1.09-.44-.47,.04-.91,.14-1.39,.16-.1-.09-.17-.2-.25-.3-.8,.05-1.81,.07-2.38-.25-.47-.12-1.37-.04-1.53-.33,.29-.36-.89-.12-1.12-.19-.69-.1-.95-.54-1.76-.49-.52-.08,.03-.3,.12-.44-.48-.07-.52,.15-.68,.32-.4,.05-.24-.22-.51-.29-.93-.04-1.86-.28-2.38-.66-.24-.15-.66,.03-.93-.09,.04-.1,.09-.2,.13-.3-.29,0-.72,.15-.89-.04-.18-.22-.63-.08-.98-.07-.13-.1-.27-.19-.38-.3,.18-.21,.56-.33,.98-.41-.12-.08-.27-.16-.44-.23,.05,.29-.56,.32-1,.34,.03,.07,.5,.27,.15,.23-.42,.06-.36-.18-.52-.31-.35-.04-.72-.06-1.07-.11-.14-.17,.24-.14,.46-.17,.09-.18-.29-.25-.5-.36,.67,.05,1.42-.01,1.21-.47,.21-.17,.72-.1,1.04-.18-.15-.12-.26-.24-.23-.39-.81-.09-1.61-.22-2.26-.5-.32-.12-.68-.2-.85-.4-.46-.1-.9-.27-1.42-.18,.07-.27-.57-.56-1.01-.3-.25-.07-.29-.25-.49-.36-.58,.11-1.03-.22-1.63-.06,.13-.23,.76-.29,1.16-.38,.6,.1,1.13,.32,1.75,.41,.32,.03,0,.39,.45,.28,.69-.13,.95,.43,1.64,.29,.51,.03,.62,.31,.65,.53,1.02-.38,1.9,.35,2.89,.41,.3-.04,.47-.2,.67-.31-.24,0-.72-.02-.97-.02,0-.13,.27-.3-.05-.38-.35,.02-.7,.03-1.07,.04-.47-.16-.33-.63-1.25-.48-.4-.04,.03-.25-.25-.35-.35,.01-.81,.16-1.07-.03-.41-.17,.34-.3,.55-.42,.32,.14,.7,.31,1.16,.27,.24-.16,.08-.35,.13-.52,.43-.24-.32-.69,.97-.42,.23,.11,.3,.34,.69,.3,1.17-.23,.73,.09,.71,.3,.42,.04,.84,.09,1.21,.19,.49,.17,1.21-.04,1.38-.29,.13-.11,.46-.38,.68-.18-.03,.15-.15,.3-.11,.45,.27,.18,.75-.02,1.12,.01,.04,.19-.4,.2-.64,.29,.43,.02,.18,.23,.17,.36,.43,.03,.56-.19,.83-.3,.39-.03,.79-.14,1.18-.08,.18,.1,.36,.19,.6,.25,.01,.1-.04,.2,.11,.27,.3-.04,.67-.24,.86-.02,.14,.15,.49,.02,.72,.03-.03,.08-.07,.17-.11,.25,.36,0,.74-.12,1.05,0,.39,.14,.91,.13,1.31,.23-.03,.11-.09,.22-.13,.32,.22-.04,.43-.11,.64-.16,.31,.07,.59,.17,.82,.29-.69,0-1.43,.16-2.09,0,0-.13,.23-.29-.07-.38-.4-.01-.83,.1-1.2-.03-.28-.09-.94-.04-.85,.17,0,.16,.51,.05,.68,.15,.67,.25,1.51,.35,2.22,.57,.58,0,.99-.54,1.63-.32,.38,.14,.87-.05,1.26,.09,.33,.11,1.04-.11,1.08,.15-.28,.28-.78,.07-1.2,.02-.17,.21-.38,.42-.55,.63,.68,.07,.85-.39,1.47-.41,.09,.23-.4,.34-.51,.54,.77-.08,1.08,.28,1.69,.39,.2,.08,.38-.01,.49-.09,.51,.11,.97,.27,1.45,.4,.56,.09,1.24-.01,1.71,.18,.27-.1,.57-.12,.87-.05-.16,.3,.94,.18,1.12,.29,.62,.2,1.44-.09,1.99,.19-.07,.14-.46,.18-.64,.29,.21,.02,.42,.03,.62,.05,.79,.23-.31,.61-.31,.92,1.34-.06,1.27-.86,1.5-1.33,.5-.14,1.23-.19,.76-.63-.3-.24-.66,.14-.66,.29-.18-.14-.41-.25-.76-.26,.25-.15,.52-.33,.96-.29,1.03,.24,.84-.34,1.41-.5,.2-.15,.37,.04,.54,.1-.04-.22,.23-.66-.43-.63-.08,.2-.25,.38-.72,.31,.21-.2,.7-.61-.14-.58-.08-.19,.42-.32,.29-.51-.26-.18-.74,.02-1.11-.02-.06-.26,.89-.17,.64-.47-.34-.1-.77-.08-1.11-.2,.21-.1,.56-.17,.48-.35-.23-.04-.58,.02-.72-.11,.01-.18,0-.37,.02-.56-.19,.05-.37,.11-.57,.16-.16-.4-.12-1.14-1.27-1.12,.24-.28-.14-.54-.31-.8-.18-.21-1.16,.21-1-.13,0-.19,.57,.05,.77-.08-.11-.12-.23-.25-.34-.37-.35,.07-1.14,.28-.89-.08,.5,0,.63-.23,.8-.42,.31,.02,.61,.06,.91,.08-.11,.1-.24,.2-.32,.3,.23,0,.45,0,.68,0,0-.13-.06-.27-.13-.4,.58,.05,1.15,.08,1.73,.01,.25-.05,.4,.04,.49,.14-.39,.13-1.17-.01-.98,.32,.36-.04,.74-.06,1.11-.03,.36-.08,.35-.24,.14-.38,.06-.24-.37-.44-.14-.69-.19,.02-.38,.05-.58,.06-.03-.36-.5-.66-.51-1.01,.44-.08,1.02-.01,1.38-.18-.18-.46-.21-.94-.28-1.41-.32,.04-.66,.05-.96-.03,.26-.2,.81-.41,1.21-.19,.4,.06-.02,.24-.06,.36,.14,.14,.35,.25,.52,.37,.29-.03,.49-.14,.66-.25,.26,0,.68,0,.56-.19-.33-.1-.74-.1-1.08-.19-.35-.17,.18-.32,.12-.51-.11-.01-.33-.04-.45-.05-.13-.14,.44-.02,.59-.05,.15,.15,.06,.31,.03,.46,.3,0,.87-.18,.81,.09,.02,.18,.49,.03,.66-.02,.22,.12,.32,.27,.47,.4,.2-.05,.38-.11,.58-.16-.19,.34,.18,.36,.5,.51,.02,.16-.49,.3-.13,.44,.21-.05,.4-.11,.61-.15,.24,.28,.03,.53-.31,.77,.41-.08,.6,.28,.94,.1,.3-.14,.39,.13,.36,.24-.26,.04-.78-.04-.64,.18,.31,0,.9-.18,.95,.08,.11,.15-.69,.13-.34,.27,.21,.21,.74-.04,.97,.15,.36,.12-.26,.28-.14,.45,.23,.01,.45,.03,.68,.03-.16,.17-.5,.07-.79,.07-.07,.08-.13,.16-.2,.23,.4,0,1.17-.23,1.27,.08,.2,.25-.64,.07-.48,.31,.3,0,.63-.09,.89,.03,.34,.46,1.04,.87,1,1.37,.33,.19,.74,.4,.69,.67-.16-.04-.35-.09-.47,.01,.2,.21,.57,.39,.44,.64-.13-.32-.54-.01-.78,.11,.21,.05,.67,.04,.64,.19,.08,.19-.34,.28-.64,.32-.72,.15,.85,.93,.38,.1,.04-.19,.36-.04,.55,0,.04,.2,.04,.4,.01,.6-.22,.04-.82-.05-.58,.15,.13,.22,.45-.11,.72-.04,.46,.1-.26,.23-.24,.38,.12,.46,.26,.93,.32,1.4,.1,.02,.3,.06,.4,.07,.1,.3,.31,.66-.1,.92,.27,.11,.37,.25,.13,.39-.38,.23-.18,.57-.5,.8-.43,.09-.24-.19-.33-.31-.38-.02-.39,.26-.77,.24-.69-.17-1.25,.5-1.82,.19-.37-.13-.99-.36-.62-.6,.37-.2-.04-.47,.13-.71-.88-.01-1.28,.72-.59,.96-.61-.04-1.01,.2-1.38,.4-.1-.2-.5-.39-.34-.6,.44-.15,.78-.39,.78-.67-.64,.09-.81,.45-1.27,.65-.29,.15-.4,.47-.94,.38-.15-.18-.27-.38-.56-.53-.44-.27,.08-.79-.62-.97-.2-.06,0-.2-.04-.3-.2-.04-.46-.15-.57,0-.74,.56,1.1,.2,.52,.76,.19,.3,.4,.6,.68,.88-.23,.13-.48,.3-.88,.25-.36-.19-.18-.49-.36-.72l-.3,.1c.13,.25,.04,.5,0,.75,.3,.02,.49,.1,.52,.25,.49-.1,.84,.06,1.09,.26-.7,.02-1.39,.01-2.1,0-.31-.02,.53-.67-.12-.54-.03,.23-.26,.43-.5,.62,.17,.14,.29,.3,.33,.46,.54-.14,1.15-.1,1.73-.14,.02,.39-.15,.78-.23,1.16Z"/><path class="d" d="M90.36,18.35c-.23-.11-.65-.2-.54-.4,.6-.12,1.25-.17,1.88-.11,.14-.15,.26-.3,.33-.47-.07-.15-.35-.29-.25-.45,.59-.22,1.06-.49,1.52-.77-.02-.23-.04-.35-.13-.62-.56-.01-.89,.27-1.41,.33,.12-.32,.28-.65,.3-.98,.23-.14,.14-.28-.13-.39,.42-.26,.2-.62,.1-.92-.1-.02-.3-.06-.4-.07-.07-.46-.2-.93-.32-1.4-.01-.15,.7-.28,.24-.38-.27-.06-.58,.26-.72,.04-.24-.2,.36-.11,.58-.15,.03-.2,.03-.4-.01-.6-.2-.03-.51-.18-.55,0,.47,.83-1.1,.05-.38-.1,.29-.05,.72-.13,.64-.32,.02-.15-.43-.14-.64-.19,.23-.13,.65-.44,.78-.11,.28,.51,.78,.98,.99,1.5,.26,.3-.03,.63,.2,.94,.18,.49,.69,.93,.82,1.43-.05,.22,.33,.41,.15,.63,.1,.01,.31,.04,.42,.05,.12,.49-.18,1.01,.23,1.47-.14,.2,.22,.23,.4,.07,.08-.33,.15-.67,.2-1,.17-.11,.33-.22,.59-.28l.16,.02c-.01,.38-.23,.74-.31,1.11-.44,.33-1.21,.66-1.01,1.09,.48,.19-.07,.5-.12,.74-.2-.02-.4-.04-.6-.07,.22-.14,.56-.27,.48-.47-.45,0-.89,.12-1.21,.27-.13,.15-.23,.32-.55,.39-.19-.07-.29-.32-.59-.22-.36,.14-.74,.26-1.12,.38Z"/><path class="d" d="M.74,18.09c-.5-.09-.16-.36-.06-.53,.2-.28,.91,.11,1.08-.16-.61,0-.19-.37-.04-.52,.19-.21,.74-.06,.96-.24,.03-.17,.07-.35,.4-.44,.9,.19,.97-.51,1.88-.26,.5,.19,1.24,.26,1.61,.49-.55-.02-1.14-.01-1.62-.18,0,.14,.09,.28,.2,.4,.22,0,.44-.03,.65-.05-.21,.44-1.32-.02-1.9,.03-.07-.08-.04-.3-.31-.18-.32,.14-.6,.31-.71,.52,.25,.02,.61-.13,.75,.02,.29,.16,.11,.36,.01,.53-.3-.05-.58-.12-.87-.19-.04-.17-.06-.36-.51-.28-.37,.22,0,.46,.34,.62,0,.32-.72,.13-1.02,.02-.39,.05-.74,.19-.84,.39Z"/><path class="d" d="M86.87,17.9c-.41,.08-1.09-.1-.9-.35,.25-.07,.51-.09,.68,.04,.41,.05,.79-.17,.89-.36-.2-.06-.52-.05-.63-.16,.53,.01,.96-.22,1.02-.47,.56,.01,.73-.27,.8-.5,.41,.1,.94-.06,1.23,.1,.21,.52-.45,.98-.46,1.48,.26,.01,.61-.01,.48,.18-.33,0-.64-.06-.96-.1-.02-.17,.47-.26,.3-.45-.18-.07-.39-.12-.6-.16-.37,.15-.41,.4-.56,.6-.23,.24-.88,.05-1.29,.15Z"/><path class="d" d="M94.44,16.39c-.19,.15-.54,.12-.4-.07-.41-.46-.12-.98-.23-1.47-.1-.01-.31-.04-.42-.05,.18-.22-.21-.41-.15-.63-.13-.49-.64-.94-.82-1.43-.23-.31,.06-.64-.2-.94-.2-.52-.71-.99-.99-1.5,.13-.25-.24-.44-.44-.64,.12-.11,.31-.05,.47-.01,.57,.84,1.32,1.66,1.84,2.51,.12,.32,.18,.66,.56,.93-.12,.13-.47,.22-.46,.38,.19,.15,.56-.02,.76,.11-.27,.34,.23,.72-.26,1.03-.03,.23,.62,.14,.9,.1-.02,.24-.08,.47,.03,.7-.04,.34-.11,.67-.2,1Z"/><path class="d" d="M95.23,15.11c-.26,.06-.43,.17-.59,.28-.11-.23-.05-.47-.03-.7-.28,.04-.94,.13-.9-.1,.49-.3-.01-.68,.26-1.03-.2-.13-.57,.04-.76-.11-.01-.16,.34-.24,.46-.38-.38-.27-.44-.61-.56-.93-.52-.85-1.26-1.67-1.84-2.51,.05-.27-.36-.48-.69-.67,.04-.51-.67-.92-1-1.37-.26-.12-.58-.03-.89-.03-.16-.24,.67-.07,.48-.31-.11-.31-.87-.08-1.27-.08,.06-.08,.13-.15,.2-.23,.28,0,.63,.09,.79-.07-.22,0-.45-.02-.68-.03-.11-.17,.5-.33,.14-.45-.23-.19-.76,.06-.97-.15-.35-.13,.45-.12,.34-.27-.05-.25-.64-.07-.95-.08-.14-.22,.38-.14,.64-.18,.03-.11-.06-.38-.36-.24-.35,.18-.54-.18-.94-.1,.34-.23,.55-.48,.31-.77-.21,.04-.4,.1-.61,.15-.36-.14,.15-.28,.13-.44-.31-.15-.68-.18-.5-.51-.2,.05-.39,.11-.58,.16-.14-.14-.24-.29-.47-.4,.15-.32-.08-.65,.08-.97,.37,.06,.4,.29,.55,.43,1.9,1.6,3.73,3.21,5.47,4.86,.62,.63,1.34,1.23,1.81,1.89,.85,.99,1.73,1.99,2.25,3.04,.67,.7,.69,1.48,.89,2.23-.05,.02-.15,.05-.19,.06Z"/><path class="d" d="M46.91,14.27c-.65-.1-1.24-.29-1.81-.47,.31,0,.83,.05,.56-.17,.51,.1,1.08,.15,1.58,.25-.17,.27-.77,.07-1.17,.07,.29,.1,.63,.17,.84,.32Z"/><path class="d" d="M45.1,13.8c-.23-.04-.49-.13-.68,0-.34,0-.24-.2-.23-.31,.29-.07,.6-.11,.92-.1-.04,.14-.11,.28-.01,.41Z"/><path class="d" d="M81.15,13.3c-1.68-.16-3.32-.45-4.99-.65-.64-.25-1.55-.16-2.17-.42-1.46-.19-2.78-.55-4.19-.8-.77-.23-1.89-.25-2.36-.67,3.69,.73,7.35,1.64,11.28,1.99,.31,0,.72,.16,.94-.02-1.53-2.35-4.39-4.39-6.62-6.58-.42-.22-.28-.56-.69-.78-.04-.34-.01-.69,.19-1.02-.08-.33-.53-.67-.18-.99,.18-.17,.15-.41,.44-.53-.18,.35-.24,.79,.47,.99-.21,.25-.4,.5-.48,.77,1.15-.05-.05,.85,.92,.85-.32,.44,.44,.81,.04,1.23,1.41-.21,.66,.13,.51,.33,.17,.33,.92,.44,.93,.81,.21,.4,.93,.63,1.14,1.02,.22,.24,.5,.48,1.02,.59-.11,.74,1.3,1.25,1.68,1.9,.58,.14,.08,.61,.77,.67,.2,.27,.19,.57,.79,.71-.02,.27,.66,.34,.56,.61Z"/><path class="d" d="M17.88,9.13c-.24,.31,.91,.61,.13,.86-.55-.18-.56-.58-.92-.85-.02-.48-.91-.82-.75-1.32-.33-.33-.08-.69-.28-1.04,.41-.42,.71-.89,.48-1.36,.14-.19-.22-.53,.18-.7,.32-.16,.25-.45,.61-.57l.12-.02c-.09,.28-.41,.59-.05,.85,.14,.16-.34,.48,.26,.46,.35,.02,.11,.28-.12,.33-.5,.15-.76,.41-.85,.69,.06,.01,.17,.04,.22,.06,1.41-.13,.44,.09,.5,.3-.03,.3-.03,.59,0,.89,.55,.1,.25,.38,.32,.6-.16,.3,.5,.53,.14,.84Z"/><path class="d" d="M62.67,9.64c-1.9-.16-3.49-.79-5.12-1.22-.6,.1-.85-.24-1.31-.37-.2,.05-.37,.13-.59,.15-.07-.18-.29-.34-.58-.46-.31,0-.59,.09-.9,.13-.06-.18-.13-.35-.21-.53,2.73,.65,5.33,1.42,8.06,2.06,.26,.06,.54,.11,.65,.24Z"/><path class="d" d="M48.72,6.01c-.28,.07-.54,.01-.74-.1-.29-.17-.9-.03-1.14-.24-.43-.32-1.42-.17-1.85-.51-.18-.2-.6-.13-.95-.11-.4-.13-.68-.32-1.02-.47-.71,.06-1.11-.34-1.75-.43-.86-.09-1.35-.56-2.31-.53-.13-.12-.22-.3-.57-.28-.65,0-.79-.44-1.52-.35-.16-.39-1.22-.17-1.54-.51-.39-.07-1.05-.11-.98-.41,.91,.13,1.7,.47,2.59,.63,3.83,1.14,7.81,2.15,11.7,3.23l.07,.08Z"/><path class="d" d="M17.45,4.12l-.12,.02c.13-.41,.42-.79,1.24-.98,.37-.52,1.05-1.21,2.27-1.27,.3-.22,.38-.53,.83-.7-.01,.34-.04,.68-.49,.95-.88-.13-1.62,.18-1.91,.56,.17,.04,.34,.07,.52,.09l.11,.02c-.49,.17-.95,.39-1.12,.68,.21,.06,.44,.09,.66,.12-.18,.16-.39,.31-.63,.45-.41-.21-1.03-.2-1.34,.06Z"/><path class="d" d="M77.29,4.06c-1.27,.27-.63-.47-1.17-.7-.48-.21,.09-.58-.4-.76-.17-.11,.17-.26,.38-.18,.28,.09,.49-.05,.7-.12,.1,.2-.11,.34-.32,.49,.17,.44,.62,.85,.81,1.27Z"/><path class="d" d="M21.65,3.51c.02,.24-.23,.5-.76,.55-.32-.18,0-.51-.49-.64-.36-.1-.07-.32,0-.46,.16,.05,.31,.1,.46,.14,.17-.08,.18-.19,.18-.29-.27,.02-.54,.03-.8-.03-.02-.19,.49-.27,.49-.47-.44-.02-.76,.15-1.11,.25,.16,.06,.26,.14,.17,.24-.18-.02-.35-.05-.52-.09,.3-.38,1.03-.69,1.91-.56,.18,.14,.63,.33,.23,.53-.1,.29,.14,.56,.23,.84Z"/><path class="d" d="M25.8,1.33c-.32,.16-.78,.26-1.24,.27,.03-.22,.18-.43,.38-.62,.44-.14,1-.17,1.38-.36-.01-.15-.37-.18-.61-.13-.76,.15-1.68,.15-2.26,.47-.08,0-.23,0-.31,0-.29,0-.59-.02-.88-.06,.17-.26,1.11-.04,1.38-.25,.62-.41,1.75-.38,2.67-.48,1.68,.32,3.35,.65,4.97,1.04l.05,.06c-.35,.07-.71,.14-1.09,.17,.41-.4-.71-.34-1.24-.44-.66,.09-.93-.34-1.53-.29-.79-.08-1.66,.21-1.67,.62Z"/><path class="d" d="M23.45,.96c-.3,.18-.29,.54-.82,.56-.03-.22,.31-.37,.51-.55,.08,0,.23,0,.31,0Z"/></g></g></g></svg>