<svg width="431" height="60" viewBox="0 0 431 60" fill="none" xmlns="http://www.w3.org/2000/svg">
<g clip-path="url(#clip0_619_8)">
<path d="M52.243 24.681C52.593 24.331 53.0678 24.1343 53.5628 24.1343C54.0579 24.1343 54.5326 24.331 54.8827 24.681C55.2327 25.0311 55.4293 25.5058 55.4293 26.0008C55.4293 26.4959 55.2327 26.9706 54.8827 27.3207C54.5326 27.6707 54.0579 27.8674 53.5628 27.8674C53.0678 27.8674 52.593 27.6707 52.243 27.3207C51.8929 26.9706 51.6963 26.4959 51.6963 26.0008C51.6963 25.5058 51.8929 25.0311 52.243 24.681ZM68.0198 24.681C68.3699 24.331 68.8446 24.1343 69.3397 24.1343C69.8347 24.1343 70.3095 24.331 70.6595 24.681C71.0095 25.0311 71.2062 25.5058 71.2062 26.0008C71.2062 26.4959 71.0095 26.9706 70.6595 27.3207C70.3095 27.6707 69.8347 27.8674 69.3397 27.8674C68.8446 27.8674 68.3699 27.6707 68.0198 27.3207C67.6698 26.9706 67.4731 26.4959 67.4731 26.0008C67.4731 25.5058 67.6698 25.0311 68.0198 24.681Z" fill="#07182B" stroke="white"/>
<path d="M93.0114 42.1945L93.0123 42.197C94.5286 46.0636 93.9985 50.4644 91.6461 53.879L91.6433 53.8832C89.2927 57.3713 85.3476 59.4212 81.1719 59.4212H73.2835C72.2186 59.4212 71.4169 58.6196 71.4169 57.5547C71.4169 55.3064 69.6154 53.5049 67.3671 53.5049C65.1262 53.5049 63.3174 55.2992 63.3174 57.4758V57.5547C63.3174 58.5629 62.4941 59.4212 61.5297 59.4212H61.5141L61.4985 59.4222C60.5316 59.4826 59.6545 58.6907 59.5843 57.6959V57.6957V57.6953V57.6949V57.6945V57.6942V57.6938V57.6934V57.693V57.6926V57.6922V57.6918V57.6915V57.6911V57.6907V57.6903V57.6899V57.6896V57.6892V57.6888V57.6885V57.6881V57.6877V57.6874V57.687V57.6866V57.6863V57.6859V57.6855V57.6852V57.6848V57.6845V57.6841V57.6838V57.6834V57.6831V57.6827V57.6824V57.682V57.6817V57.6813V57.681V57.6807V57.6803V57.68V57.6796V57.6793V57.679V57.6786V57.6783V57.678V57.6776V57.6773V57.677V57.6767V57.6763V57.676V57.6757V57.6754V57.675V57.6747V57.6744V57.6741V57.6738V57.6735V57.6731V57.6728V57.6725V57.6722V57.6719V57.6716V57.6713V57.671V57.6707V57.6704V57.6701V57.6698V57.6695V57.6692V57.6689V57.6686V57.6683V57.668V57.6677V57.6674V57.6671V57.6668V57.6665V57.6662V57.6659V57.6656V57.6653V57.665V57.6648V57.6645V57.6642V57.6639V57.6636V57.6633V57.6631V57.6628V57.6625V57.6622V57.6619V57.6617V57.6614V57.6611V57.6608V57.6606V57.6603V57.66V57.6597V57.6595V57.6592V57.6589V57.6587V57.6584V57.6581V57.6579V57.6576V57.6573V57.6571V57.6568V57.6565V57.6563V57.656V57.6557V57.6555V57.6552V57.655V57.6547V57.6545V57.6542V57.6539V57.6537V57.6534V57.6532V57.6529V57.6527V57.6524V57.6522V57.6519V57.6517V57.6514V57.6512V57.6509V57.6507V57.6504V57.6502V57.6499V57.6497V57.6494V57.6492V57.6489V57.6487V57.6484V57.6482V57.6479V57.6477V57.6475V57.6472V57.647V57.6467V57.6465V57.6462V57.646V57.6458V57.6455V57.6453V57.645V57.6448V57.6446V57.6443V57.6441V57.6438V57.6436V57.6434V57.6431V57.6429V57.6427V57.6424V57.6422V57.6419V57.6417V57.6415V57.6412V57.641V57.6408V57.6405V57.6403V57.6401V57.6398V57.6396V57.6394V57.6391V57.6389V57.6387V57.6384V57.6382V57.638V57.6377V57.6375V57.6373V57.637V57.6368V57.6366V57.6363V57.6361V57.6359V57.6357V57.6354V57.6352V57.635V57.6347V57.6345V57.6343V57.634V57.6338V57.6336V57.6333V57.6331V57.6329V57.6326V57.6324V57.6322V57.632V57.6317V57.6315V57.6313V57.631V57.6308V57.6306V57.6303V57.6301V57.6299V57.6296V57.6294V57.6292V57.6289V57.6287V57.6285V57.6282V57.628V57.6278V57.6275V57.6273V57.6271V57.6268V57.6266V57.6264V57.6261V57.6259V57.6257V57.6254V57.6252V57.625V57.6247V57.6245V57.6243V57.624V57.6238V57.6235V57.6233V57.6231V57.6228V57.6226V57.6223V57.6221V57.6219V57.6216V57.6214V57.6211V57.6209V57.6207V57.6204V57.6202V57.6199V57.6197V57.6195V57.6192V57.619V57.6187V57.6185V57.6182V57.618V57.6177V57.6175V57.6172V57.617V57.6167V57.6165V57.6162V57.616V57.6157V57.6155V57.6152V57.615V57.6147V57.6145V57.6142V57.614V57.6137V57.6135V57.6132V57.613V57.6127V57.6124V57.6122V57.6119V57.6117V57.6114V57.6111V57.6109V57.6106V57.6103V57.6101V57.6098V57.6096V57.6093V57.609V57.6088V57.6085V57.6082V57.6079V57.6077V57.6074V57.6071V57.6069V57.6066V57.6063V57.606V57.6058V57.6055V57.6052V57.6049V57.6046V57.6044V57.6041V57.6038V57.6035V57.6032V57.603V57.6027V57.6024V57.6021V57.6018V57.6015V57.6012V57.6009V57.6007V57.6004V57.6001V57.5998V57.5995V57.5992V57.5989V57.5986V57.5983V57.598V57.5977V57.5974V57.5971V57.5968V57.5965V57.5962V57.5959V57.5956V57.5952V57.5949V57.5946V57.5943V57.594V57.5937V57.5934V57.5931V57.5927V57.5924V57.5921V57.5918V57.5915V57.5911V57.5908V57.5905V57.5902V57.5898V57.5895V57.5892V57.5888V57.5885V57.5882V57.5878V57.5875V57.5872V57.5868V57.5865V57.5861V57.5858V57.5855V57.5851V57.5848V57.5844V57.5841V57.5837V57.5834V57.583V57.5827V57.5823V57.582V57.5816V57.5812V57.5809V57.5805V57.5802V57.5798V57.5794V57.5791V57.5787V57.5783V57.578V57.5776V57.5772V57.5768V57.5764V57.5761V57.5757V57.5753V57.5749V57.5745V57.5742V57.5738V57.5734V57.573V57.5726V57.5722V57.5718V57.5714V57.571V57.5706V57.5702V57.5698V57.5694V57.569V57.5686V57.5682V57.5678V57.5674V57.5669V57.5665V57.5661V57.5657V57.5653V57.5649V57.5644V57.564V57.5636V57.5632V57.5627V57.5623V57.5619V57.5614V57.561V57.5605V57.5601V57.5597V57.5592V57.5588V57.5583V57.5579V57.5574V57.557V57.5565V57.5561V57.5556V57.5551V57.5547V57.4758C59.5843 56.3879 59.1309 55.3954 58.4124 54.6768L58.402 54.6665L58.391 54.6567C57.6079 53.9606 56.6262 53.5049 55.5345 53.5049C54.4864 53.5049 53.3868 53.8541 52.6365 54.6982C51.9405 55.4813 51.4847 56.463 51.4847 57.5547C51.4847 58.6196 50.6831 59.4212 49.6182 59.4212C48.5533 59.4212 47.7517 58.6196 47.7517 57.5547C47.7517 55.4821 48.5642 53.5573 50.0506 52.0708C51.5371 50.5844 53.4619 49.7718 55.5345 49.7718C57.6071 49.7718 59.5319 50.5844 61.0184 52.0708L61.022 52.0744L61.0238 52.0762L61.0256 52.078L61.029 52.0814L61.0306 52.0831L61.0311 52.0835L61.0315 52.0839L61.0323 52.0847L61.0386 52.091L61.0415 52.094L61.0444 52.0968L61.064 52.1164L61.078 52.1304L61.0874 52.1398L61.0931 52.1455L61.096 52.1485L61.0971 52.1495L61.0973 52.1497L61.4508 51.7961L61.8133 52.1405C63.2186 50.6613 65.2178 49.7718 67.3671 49.7718C70.9245 49.7718 73.8916 52.1434 74.8559 55.3329L74.9633 55.6882H75.3344H81.1719C84.111 55.6882 86.779 54.1762 88.5187 51.7739C90.2788 49.3432 90.611 46.2446 89.5261 43.4892C89.5259 43.4887 89.5257 43.4883 89.5255 43.4878L75.2489 6.41574L74.9725 5.69809L74.4287 6.24187L73.561 7.1096C70.3429 10.3277 66.0531 12.0907 61.4508 12.0907C56.8489 12.0907 52.5577 10.3279 49.3385 7.1863C49.3378 7.18562 49.3371 7.18493 49.3364 7.18425L48.4729 6.32075L47.9292 5.77697L47.6528 6.49462L33.3761 43.5667C33.3759 43.5674 33.3756 43.568 33.3754 43.5687C32.2857 46.3366 32.7119 49.3467 34.3719 51.8368C36.0429 54.3434 38.7238 55.767 41.7298 55.767C42.7947 55.767 43.5963 56.5687 43.5963 57.6336C43.5963 58.6985 42.7947 59.5001 41.7298 59.5001H8.44061C4.06259 59.5001 0.5 55.9375 0.5 51.5595C0.5 49.0975 1.54299 46.8043 3.46023 45.3295L3.46031 45.3296L3.46954 45.3222C5.39654 43.7658 7.84274 43.2439 10.2257 43.7648C10.2262 43.7649 10.2266 43.765 10.227 43.7651L21.5779 46.2875C22.6047 46.5475 23.2619 47.5618 23.0224 48.5195C22.7649 49.5498 21.7485 50.2099 20.7889 49.97L20.789 49.9699L20.7754 49.9669L9.33721 47.4426L9.33422 47.4419C8.10124 47.1777 6.76281 47.4358 5.7657 48.2471C4.68497 49.062 4.15417 50.3191 4.15417 51.5595C4.15417 53.8866 6.0346 55.767 8.36173 55.767H31.7115H32.9186L32.065 54.9135C31.8734 54.7219 31.7296 54.5157 31.5697 54.2866C31.4955 54.1803 31.4179 54.069 31.3304 53.9519C28.9796 50.4566 28.4539 46.0584 29.9682 42.197L29.9692 42.1945L45.586 1.73253C45.5864 1.73162 45.5868 1.73071 45.5871 1.72979C45.846 1.08485 46.3478 0.65983 46.9553 0.538324V0.538435L46.9657 0.536128C47.51 0.415181 48.2031 0.602208 48.6336 1.03266L52.0227 4.42178C54.4862 6.96581 57.8503 8.35757 61.4508 8.35757C65.0542 8.35757 68.4157 6.96395 70.9549 4.42468L74.347 1.03266C74.773 0.6066 75.3816 0.41722 76.0023 0.533885C76.6422 0.732684 77.1443 1.17929 77.397 1.73908L93.0114 42.1945Z" fill="#07182B" stroke="white"/>
<circle cx="55.5" cy="57.5" r="3.5" fill="#F2C94C"/>
<circle cx="67.5" cy="57.5" r="3.5" fill="#F2C94C"/>
</g>
<path d="M121.464 19.176H127.512C128.333 19.176 129.136 19.26 129.92 19.428C130.704 19.596 131.404 19.876 132.02 20.268C132.636 20.6413 133.131 21.136 133.504 21.752C133.896 22.368 134.092 23.1333 134.092 24.048C134.092 25.2053 133.775 26.1667 133.14 26.932C132.524 27.6787 131.684 28.2107 130.62 28.528V28.584C131.255 28.64 131.843 28.808 132.384 29.088C132.944 29.3493 133.42 29.6947 133.812 30.124C134.223 30.5533 134.54 31.0573 134.764 31.636C134.988 32.196 135.1 32.8027 135.1 33.456C135.1 34.5573 134.867 35.4627 134.4 36.172C133.952 36.8813 133.355 37.4507 132.608 37.88C131.88 38.2907 131.049 38.58 130.116 38.748C129.201 38.916 128.287 39 127.372 39H121.464V19.176ZM123.816 27.576H127.064C127.624 27.576 128.165 27.5387 128.688 27.464C129.229 27.3893 129.715 27.24 130.144 27.016C130.573 26.7733 130.919 26.4467 131.18 26.036C131.441 25.6067 131.572 25.0467 131.572 24.356C131.572 23.74 131.451 23.2453 131.208 22.872C130.965 22.48 130.639 22.172 130.228 21.948C129.836 21.724 129.379 21.5747 128.856 21.5C128.352 21.4067 127.839 21.36 127.316 21.36H123.816V27.576ZM123.816 36.816H127.792C128.371 36.816 128.94 36.76 129.5 36.648C130.079 36.5173 130.592 36.3213 131.04 36.06C131.507 35.78 131.88 35.4253 132.16 34.996C132.44 34.548 132.58 34.0067 132.58 33.372C132.58 32.6813 132.44 32.1027 132.16 31.636C131.899 31.1693 131.544 30.796 131.096 30.516C130.667 30.236 130.163 30.04 129.584 29.928C129.024 29.816 128.445 29.76 127.848 29.76H123.816V36.816ZM138.709 29.004C138.709 28.4067 138.69 27.8467 138.653 27.324C138.615 26.8013 138.597 26.3253 138.597 25.896H140.669C140.669 26.2507 140.678 26.6053 140.697 26.96C140.715 27.3147 140.725 27.6787 140.725 28.052H140.781C140.93 27.7347 141.135 27.4267 141.397 27.128C141.677 26.8293 142.003 26.568 142.377 26.344C142.75 26.1013 143.17 25.9147 143.637 25.784C144.103 25.6347 144.607 25.56 145.149 25.56C145.298 25.56 145.447 25.5693 145.597 25.588C145.746 25.6067 145.895 25.644 146.045 25.7L145.905 27.912C145.531 27.8 145.139 27.744 144.729 27.744C143.385 27.744 142.405 28.1827 141.789 29.06C141.191 29.9187 140.893 31.104 140.893 32.616V39H138.709V29.004ZM159.764 36.62C158.98 37.628 158.122 38.3373 157.188 38.748C156.255 39.14 155.172 39.336 153.94 39.336C152.914 39.336 151.99 39.1587 151.168 38.804C150.347 38.4307 149.647 37.936 149.068 37.32C148.508 36.704 148.07 35.976 147.752 35.136C147.454 34.296 147.304 33.4 147.304 32.448C147.304 31.44 147.472 30.516 147.808 29.676C148.144 28.8173 148.611 28.0893 149.208 27.492C149.806 26.876 150.515 26.4 151.336 26.064C152.158 25.728 153.054 25.56 154.024 25.56C154.939 25.56 155.779 25.7187 156.544 26.036C157.31 26.3347 157.963 26.7827 158.504 27.38C159.064 27.9587 159.494 28.6773 159.792 29.536C160.091 30.376 160.24 31.3373 160.24 32.42V33.12H149.656C149.694 33.68 149.824 34.2213 150.048 34.744C150.291 35.248 150.599 35.696 150.972 36.088C151.346 36.4613 151.784 36.76 152.288 36.984C152.792 37.208 153.343 37.32 153.94 37.32C154.892 37.32 155.695 37.152 156.348 36.816C157.002 36.48 157.59 35.9853 158.112 35.332L159.764 36.62ZM157.888 31.272C157.851 30.152 157.487 29.256 156.796 28.584C156.106 27.912 155.154 27.576 153.94 27.576C152.727 27.576 151.747 27.912 151 28.584C150.254 29.256 149.806 30.152 149.656 31.272H157.888ZM163.619 29.004C163.619 28.4067 163.6 27.8467 163.563 27.324C163.526 26.8013 163.507 26.3253 163.507 25.896H165.579C165.579 26.2507 165.588 26.6053 165.607 26.96C165.626 27.3147 165.635 27.6787 165.635 28.052H165.691C165.84 27.7347 166.046 27.4267 166.307 27.128C166.587 26.8293 166.914 26.568 167.287 26.344C167.66 26.1013 168.08 25.9147 168.547 25.784C169.014 25.6347 169.518 25.56 170.059 25.56C170.918 25.56 171.655 25.6907 172.271 25.952C172.906 26.2133 173.428 26.5773 173.839 27.044C174.25 27.5107 174.548 28.08 174.735 28.752C174.94 29.4053 175.043 30.124 175.043 30.908V39H172.859V31.132C172.859 30.0307 172.616 29.1627 172.131 28.528C171.646 27.8933 170.89 27.576 169.863 27.576C169.154 27.576 168.538 27.6973 168.015 27.94C167.511 28.1827 167.091 28.528 166.755 28.976C166.438 29.424 166.195 29.956 166.027 30.572C165.878 31.188 165.803 31.8693 165.803 32.616V39H163.619V29.004ZM190.069 36.676H190.013C189.603 37.4227 188.949 38.0573 188.053 38.58C187.176 39.084 186.149 39.336 184.973 39.336C184.059 39.336 183.2 39.168 182.397 38.832C181.595 38.4773 180.895 37.992 180.297 37.376C179.719 36.76 179.261 36.032 178.925 35.192C178.589 34.352 178.421 33.4373 178.421 32.448C178.421 31.4587 178.589 30.544 178.925 29.704C179.261 28.864 179.728 28.136 180.325 27.52C180.923 26.904 181.641 26.428 182.481 26.092C183.34 25.7373 184.283 25.56 185.309 25.56C186.261 25.56 187.129 25.756 187.913 26.148C188.716 26.54 189.416 27.0907 190.013 27.8H190.069V17.832H192.253V39H190.069V36.676ZM190.069 32.448C190.069 31.7573 189.957 31.1227 189.733 30.544C189.528 29.9467 189.22 29.4333 188.809 29.004C188.399 28.556 187.904 28.2107 187.325 27.968C186.765 27.7067 186.131 27.576 185.421 27.576C184.712 27.576 184.068 27.7067 183.489 27.968C182.929 28.2107 182.444 28.556 182.033 29.004C181.623 29.4333 181.305 29.9467 181.081 30.544C180.876 31.1227 180.773 31.7573 180.773 32.448C180.773 33.1387 180.876 33.7827 181.081 34.38C181.305 34.9587 181.623 35.472 182.033 35.92C182.444 36.3493 182.929 36.6947 183.489 36.956C184.068 37.1987 184.712 37.32 185.421 37.32C186.131 37.32 186.765 37.1987 187.325 36.956C187.904 36.6947 188.399 36.3493 188.809 35.92C189.22 35.472 189.528 34.9587 189.733 34.38C189.957 33.7827 190.069 33.1387 190.069 32.448ZM196.127 27.576C196.799 26.8853 197.592 26.3813 198.507 26.064C199.44 25.728 200.383 25.56 201.335 25.56C203.276 25.56 204.676 26.0173 205.535 26.932C206.393 27.8467 206.823 29.2373 206.823 31.104V36.732C206.823 37.1053 206.841 37.4973 206.879 37.908C206.916 38.3 206.963 38.664 207.019 39H204.919C204.844 38.7013 204.797 38.3747 204.779 38.02C204.779 37.6467 204.779 37.32 204.779 37.04H204.723C204.293 37.712 203.715 38.2627 202.987 38.692C202.277 39.1213 201.419 39.336 200.411 39.336C199.739 39.336 199.104 39.252 198.507 39.084C197.928 38.916 197.415 38.6733 196.967 38.356C196.537 38.02 196.192 37.6093 195.931 37.124C195.669 36.6387 195.539 36.0787 195.539 35.444C195.539 34.3613 195.819 33.512 196.379 32.896C196.939 32.28 197.629 31.8227 198.451 31.524C199.291 31.2253 200.187 31.0387 201.139 30.964C202.109 30.8893 202.996 30.852 203.799 30.852H204.639V30.46C204.639 29.508 204.349 28.7893 203.771 28.304C203.211 27.8187 202.417 27.576 201.391 27.576C200.681 27.576 199.981 27.6973 199.291 27.94C198.619 28.164 198.021 28.5187 197.499 29.004L196.127 27.576ZM202.455 32.7C201.055 32.7 199.944 32.896 199.123 33.288C198.301 33.68 197.891 34.324 197.891 35.22C197.891 36.0413 198.161 36.6293 198.703 36.984C199.263 37.32 199.953 37.488 200.775 37.488C201.409 37.488 201.96 37.3853 202.427 37.18C202.912 36.956 203.313 36.6667 203.631 36.312C203.948 35.9573 204.191 35.5467 204.359 35.08C204.527 34.5947 204.62 34.0813 204.639 33.54V32.7H202.455ZM235.855 37.656C234.716 38.2907 233.512 38.7573 232.243 39.056C230.992 39.3547 229.723 39.504 228.435 39.504C226.886 39.504 225.467 39.252 224.179 38.748C222.891 38.244 221.771 37.5347 220.819 36.62C219.886 35.7053 219.158 34.6133 218.635 33.344C218.112 32.056 217.851 30.6373 217.851 29.088C217.851 27.52 218.122 26.1013 218.663 24.832C219.223 23.544 219.988 22.452 220.959 21.556C221.93 20.6413 223.059 19.932 224.347 19.428C225.635 18.924 227.026 18.672 228.519 18.672C229.826 18.672 231.076 18.868 232.271 19.26C233.484 19.652 234.567 20.324 235.519 21.276L233.755 23.124C233.083 22.396 232.262 21.836 231.291 21.444C230.339 21.052 229.359 20.856 228.351 20.856C227.212 20.856 226.158 21.0613 225.187 21.472C224.216 21.8827 223.367 22.452 222.639 23.18C221.93 23.908 221.37 24.776 220.959 25.784C220.567 26.792 220.371 27.8933 220.371 29.088C220.371 30.264 220.567 31.356 220.959 32.364C221.37 33.372 221.93 34.2493 222.639 34.996C223.367 35.724 224.235 36.2933 225.243 36.704C226.251 37.1147 227.362 37.32 228.575 37.32C229.378 37.32 230.218 37.2267 231.095 37.04C231.972 36.8347 232.775 36.5453 233.503 36.172V30.096H228.939V27.912H235.855V37.656ZM239.644 32.448C239.644 31.4213 239.821 30.488 240.176 29.648C240.531 28.808 241.016 28.0893 241.632 27.492C242.248 26.876 242.985 26.4 243.844 26.064C244.703 25.728 245.636 25.56 246.644 25.56C247.652 25.56 248.585 25.728 249.444 26.064C250.303 26.4 251.04 26.876 251.656 27.492C252.272 28.0893 252.757 28.808 253.112 29.648C253.467 30.488 253.644 31.4213 253.644 32.448C253.644 33.4747 253.467 34.408 253.112 35.248C252.757 36.088 252.272 36.816 251.656 37.432C251.04 38.0293 250.303 38.496 249.444 38.832C248.585 39.168 247.652 39.336 246.644 39.336C245.636 39.336 244.703 39.168 243.844 38.832C242.985 38.496 242.248 38.0293 241.632 37.432C241.016 36.816 240.531 36.088 240.176 35.248C239.821 34.408 239.644 33.4747 239.644 32.448ZM241.996 32.448C241.996 33.1387 242.099 33.7827 242.304 34.38C242.528 34.9587 242.845 35.472 243.256 35.92C243.667 36.3493 244.152 36.6947 244.712 36.956C245.291 37.1987 245.935 37.32 246.644 37.32C247.353 37.32 247.988 37.1987 248.548 36.956C249.127 36.6947 249.621 36.3493 250.032 35.92C250.443 35.472 250.751 34.9587 250.956 34.38C251.18 33.7827 251.292 33.1387 251.292 32.448C251.292 31.7573 251.18 31.1227 250.956 30.544C250.751 29.9467 250.443 29.4333 250.032 29.004C249.621 28.556 249.127 28.2107 248.548 27.968C247.988 27.7067 247.353 27.576 246.644 27.576C245.935 27.576 245.291 27.7067 244.712 27.968C244.152 28.2107 243.667 28.556 243.256 29.004C242.845 29.4333 242.528 29.9467 242.304 30.544C242.099 31.1227 241.996 31.7573 241.996 32.448ZM257.025 29.004C257.025 28.4067 257.006 27.8467 256.969 27.324C256.932 26.8013 256.913 26.3253 256.913 25.896H258.985C258.985 26.2507 258.994 26.6053 259.013 26.96C259.032 27.3147 259.041 27.6787 259.041 28.052H259.097C259.246 27.7347 259.452 27.4267 259.713 27.128C259.993 26.8293 260.32 26.568 260.693 26.344C261.066 26.1013 261.486 25.9147 261.953 25.784C262.42 25.6347 262.924 25.56 263.465 25.56C264.324 25.56 265.061 25.6907 265.677 25.952C266.312 26.2133 266.834 26.5773 267.245 27.044C267.656 27.5107 267.954 28.08 268.141 28.752C268.346 29.4053 268.449 30.124 268.449 30.908V39H266.265V31.132C266.265 30.0307 266.022 29.1627 265.537 28.528C265.052 27.8933 264.296 27.576 263.269 27.576C262.56 27.576 261.944 27.6973 261.421 27.94C260.917 28.1827 260.497 28.528 260.161 28.976C259.844 29.424 259.601 29.956 259.433 30.572C259.284 31.188 259.209 31.8693 259.209 32.616V39H257.025V29.004ZM271.352 37.292L279.052 27.744H271.688V25.896H281.908V27.576L274.208 37.152H282.104V39H271.352V37.292ZM284.857 27.576C285.529 26.8853 286.322 26.3813 287.237 26.064C288.17 25.728 289.113 25.56 290.065 25.56C292.006 25.56 293.406 26.0173 294.265 26.932C295.124 27.8467 295.553 29.2373 295.553 31.104V36.732C295.553 37.1053 295.572 37.4973 295.609 37.908C295.646 38.3 295.693 38.664 295.749 39H293.649C293.574 38.7013 293.528 38.3747 293.509 38.02C293.509 37.6467 293.509 37.32 293.509 37.04H293.453C293.024 37.712 292.445 38.2627 291.717 38.692C291.008 39.1213 290.149 39.336 289.141 39.336C288.469 39.336 287.834 39.252 287.237 39.084C286.658 38.916 286.145 38.6733 285.697 38.356C285.268 38.02 284.922 37.6093 284.661 37.124C284.4 36.6387 284.269 36.0787 284.269 35.444C284.269 34.3613 284.549 33.512 285.109 32.896C285.669 32.28 286.36 31.8227 287.181 31.524C288.021 31.2253 288.917 31.0387 289.869 30.964C290.84 30.8893 291.726 30.852 292.529 30.852H293.369V30.46C293.369 29.508 293.08 28.7893 292.501 28.304C291.941 27.8187 291.148 27.576 290.121 27.576C289.412 27.576 288.712 27.6973 288.021 27.94C287.349 28.164 286.752 28.5187 286.229 29.004L284.857 27.576ZM291.185 32.7C289.785 32.7 288.674 32.896 287.853 33.288C287.032 33.68 286.621 34.324 286.621 35.22C286.621 36.0413 286.892 36.6293 287.433 36.984C287.993 37.32 288.684 37.488 289.505 37.488C290.14 37.488 290.69 37.3853 291.157 37.18C291.642 36.956 292.044 36.6667 292.361 36.312C292.678 35.9573 292.921 35.5467 293.089 35.08C293.257 34.5947 293.35 34.0813 293.369 33.54V32.7H291.185ZM291.213 18.728H294.293L290.289 22.76H288.301L291.213 18.728ZM299.741 17.832H301.925V39H299.741V17.832ZM317.975 36.62C317.191 37.628 316.333 38.3373 315.399 38.748C314.466 39.14 313.383 39.336 312.151 39.336C311.125 39.336 310.201 39.1587 309.379 38.804C308.558 38.4307 307.858 37.936 307.279 37.32C306.719 36.704 306.281 35.976 305.963 35.136C305.665 34.296 305.515 33.4 305.515 32.448C305.515 31.44 305.683 30.516 306.019 29.676C306.355 28.8173 306.822 28.0893 307.419 27.492C308.017 26.876 308.726 26.4 309.547 26.064C310.369 25.728 311.265 25.56 312.235 25.56C313.15 25.56 313.99 25.7187 314.755 26.036C315.521 26.3347 316.174 26.7827 316.715 27.38C317.275 27.9587 317.705 28.6773 318.003 29.536C318.302 30.376 318.451 31.3373 318.451 32.42V33.12H307.867C307.905 33.68 308.035 34.2213 308.259 34.744C308.502 35.248 308.81 35.696 309.183 36.088C309.557 36.4613 309.995 36.76 310.499 36.984C311.003 37.208 311.554 37.32 312.151 37.32C313.103 37.32 313.906 37.152 314.559 36.816C315.213 36.48 315.801 35.9853 316.323 35.332L317.975 36.62ZM316.099 31.272C316.062 30.152 315.698 29.256 315.007 28.584C314.317 27.912 313.365 27.576 312.151 27.576C310.938 27.576 309.958 27.912 309.211 28.584C308.465 29.256 308.017 30.152 307.867 31.272H316.099ZM320.598 37.292L328.298 27.744H320.934V25.896H331.154V27.576L323.454 37.152H331.35V39H320.598V37.292ZM351.668 39.504C350.156 39.504 348.766 39.2427 347.496 38.72C346.246 38.1973 345.154 37.4787 344.22 36.564C343.306 35.6307 342.587 34.5293 342.064 33.26C341.56 31.972 341.308 30.5813 341.308 29.088C341.308 27.5947 341.56 26.2133 342.064 24.944C342.587 23.656 343.306 22.5547 344.22 21.64C345.154 20.7067 346.246 19.9787 347.496 19.456C348.766 18.9333 350.156 18.672 351.668 18.672C353.18 18.672 354.562 18.9333 355.812 19.456C357.082 19.9787 358.174 20.7067 359.088 21.64C360.022 22.5547 360.74 23.656 361.244 24.944C361.767 26.2133 362.028 27.5947 362.028 29.088C362.028 30.5813 361.767 31.972 361.244 33.26C360.74 34.5293 360.022 35.6307 359.088 36.564C358.174 37.4787 357.082 38.1973 355.812 38.72C354.562 39.2427 353.18 39.504 351.668 39.504ZM351.668 37.32C352.826 37.32 353.88 37.1053 354.832 36.676C355.803 36.2467 356.634 35.6587 357.324 34.912C358.015 34.1653 358.547 33.2973 358.92 32.308C359.312 31.3 359.508 30.2267 359.508 29.088C359.508 27.9493 359.312 26.8853 358.92 25.896C358.547 24.888 358.015 24.0107 357.324 23.264C356.634 22.5173 355.803 21.9293 354.832 21.5C353.88 21.0707 352.826 20.856 351.668 20.856C350.511 20.856 349.447 21.0707 348.476 21.5C347.524 21.9293 346.703 22.5173 346.012 23.264C345.322 24.0107 344.78 24.888 344.388 25.896C344.015 26.8853 343.828 27.9493 343.828 29.088C343.828 30.2267 344.015 31.3 344.388 32.308C344.78 33.2973 345.322 34.1653 346.012 34.912C346.703 35.6587 347.524 36.2467 348.476 36.676C349.447 37.1053 350.511 37.32 351.668 37.32ZM365.416 29.004C365.416 28.4067 365.397 27.8467 365.36 27.324C365.322 26.8013 365.304 26.3253 365.304 25.896H367.376C367.376 26.2507 367.385 26.6053 367.404 26.96C367.422 27.3147 367.432 27.6787 367.432 28.052H367.488C367.637 27.7347 367.842 27.4267 368.104 27.128C368.384 26.8293 368.71 26.568 369.084 26.344C369.457 26.1013 369.877 25.9147 370.344 25.784C370.81 25.6347 371.314 25.56 371.856 25.56C372.005 25.56 372.154 25.5693 372.304 25.588C372.453 25.6067 372.602 25.644 372.752 25.7L372.612 27.912C372.238 27.8 371.846 27.744 371.436 27.744C370.092 27.744 369.112 28.1827 368.496 29.06C367.898 29.9187 367.6 31.104 367.6 32.616V39H365.416V29.004ZM382.428 27.744H378.564V34.296C378.564 34.7253 378.573 35.1267 378.592 35.5C378.61 35.8547 378.685 36.172 378.816 36.452C378.946 36.7133 379.142 36.928 379.404 37.096C379.665 37.2453 380.038 37.32 380.524 37.32C380.841 37.32 381.168 37.2827 381.504 37.208C381.84 37.1333 382.157 37.0213 382.456 36.872L382.54 38.86C382.166 39.028 381.746 39.1493 381.28 39.224C380.832 39.2987 380.402 39.336 379.992 39.336C379.208 39.336 378.582 39.2333 378.116 39.028C377.649 38.8227 377.285 38.5333 377.024 38.16C376.762 37.7867 376.585 37.3293 376.492 36.788C376.417 36.228 376.38 35.612 376.38 34.94V27.744H373.524V25.896H376.38V22.172H378.564V25.896H382.428V27.744ZM396.807 36.62C396.023 37.628 395.165 38.3373 394.231 38.748C393.298 39.14 392.215 39.336 390.983 39.336C389.957 39.336 389.033 39.1587 388.211 38.804C387.39 38.4307 386.69 37.936 386.111 37.32C385.551 36.704 385.113 35.976 384.795 35.136C384.497 34.296 384.347 33.4 384.347 32.448C384.347 31.44 384.515 30.516 384.851 29.676C385.187 28.8173 385.654 28.0893 386.251 27.492C386.849 26.876 387.558 26.4 388.379 26.064C389.201 25.728 390.097 25.56 391.067 25.56C391.982 25.56 392.822 25.7187 393.587 26.036C394.353 26.3347 395.006 26.7827 395.547 27.38C396.107 27.9587 396.537 28.6773 396.835 29.536C397.134 30.376 397.283 31.3373 397.283 32.42V33.12H386.699C386.737 33.68 386.867 34.2213 387.091 34.744C387.334 35.248 387.642 35.696 388.015 36.088C388.389 36.4613 388.827 36.76 389.331 36.984C389.835 37.208 390.386 37.32 390.983 37.32C391.935 37.32 392.738 37.152 393.391 36.816C394.045 36.48 394.633 35.9853 395.155 35.332L396.807 36.62ZM394.931 31.272C394.894 30.152 394.53 29.256 393.839 28.584C393.149 27.912 392.197 27.576 390.983 27.576C389.77 27.576 388.79 27.912 388.043 28.584C387.297 29.256 386.849 30.152 386.699 31.272H394.931ZM413.738 38.412C413.738 40.8013 413.122 42.612 411.89 43.844C410.677 45.0947 408.913 45.72 406.598 45.72C405.31 45.72 404.143 45.5333 403.098 45.16C402.071 44.7867 401.091 44.1427 400.158 43.228L401.726 41.436C402.417 42.1827 403.145 42.7427 403.91 43.116C404.694 43.508 405.59 43.704 406.598 43.704C407.569 43.704 408.371 43.5547 409.006 43.256C409.659 42.976 410.173 42.584 410.546 42.08C410.919 41.5947 411.181 41.0347 411.33 40.4C411.479 39.7653 411.554 39.1027 411.554 38.412V36.732H411.498C410.975 37.572 410.294 38.188 409.454 38.58C408.614 38.972 407.755 39.168 406.878 39.168C405.851 39.168 404.909 39 404.05 38.664C403.191 38.328 402.454 37.8613 401.838 37.264C401.222 36.6667 400.746 35.9573 400.41 35.136C400.074 34.3147 399.906 33.4187 399.906 32.448C399.906 31.384 400.074 30.4227 400.41 29.564C400.746 28.7053 401.213 27.9867 401.81 27.408C402.426 26.8107 403.163 26.3533 404.022 26.036C404.881 25.7187 405.833 25.56 406.878 25.56C407.326 25.56 407.774 25.616 408.222 25.728C408.67 25.8213 409.099 25.98 409.51 26.204C409.939 26.4093 410.322 26.68 410.658 27.016C410.994 27.3333 411.274 27.7067 411.498 28.136H411.554V25.896H413.738V38.412ZM402.258 32.448C402.258 33.12 402.379 33.7453 402.622 34.324C402.865 34.884 403.191 35.3787 403.602 35.808C404.031 36.2187 404.526 36.5453 405.086 36.788C405.646 37.0307 406.243 37.152 406.878 37.152C407.625 37.152 408.287 37.0213 408.866 36.76C409.445 36.4987 409.93 36.1533 410.322 35.724C410.733 35.276 411.041 34.772 411.246 34.212C411.451 33.6333 411.554 33.0267 411.554 32.392C411.554 31.6827 411.442 31.0387 411.218 30.46C410.994 29.8627 410.677 29.3493 410.266 28.92C409.855 28.4907 409.361 28.164 408.782 27.94C408.203 27.6973 407.569 27.576 406.878 27.576C406.187 27.576 405.553 27.7067 404.974 27.968C404.414 28.2107 403.929 28.556 403.518 29.004C403.126 29.4333 402.818 29.9467 402.594 30.544C402.37 31.1227 402.258 31.7573 402.258 32.448ZM417.611 27.576C418.283 26.8853 419.076 26.3813 419.991 26.064C420.924 25.728 421.867 25.56 422.819 25.56C424.76 25.56 426.16 26.0173 427.019 26.932C427.878 27.8467 428.307 29.2373 428.307 31.104V36.732C428.307 37.1053 428.326 37.4973 428.363 37.908C428.4 38.3 428.447 38.664 428.503 39H426.403C426.328 38.7013 426.282 38.3747 426.263 38.02C426.263 37.6467 426.263 37.32 426.263 37.04H426.207C425.778 37.712 425.199 38.2627 424.471 38.692C423.762 39.1213 422.903 39.336 421.895 39.336C421.223 39.336 420.588 39.252 419.991 39.084C419.412 38.916 418.899 38.6733 418.451 38.356C418.022 38.02 417.676 37.6093 417.415 37.124C417.154 36.6387 417.023 36.0787 417.023 35.444C417.023 34.3613 417.303 33.512 417.863 32.896C418.423 32.28 419.114 31.8227 419.935 31.524C420.775 31.2253 421.671 31.0387 422.623 30.964C423.594 30.8893 424.48 30.852 425.283 30.852H426.123V30.46C426.123 29.508 425.834 28.7893 425.255 28.304C424.695 27.8187 423.902 27.576 422.875 27.576C422.166 27.576 421.466 27.6973 420.775 27.94C420.103 28.164 419.506 28.5187 418.983 29.004L417.611 27.576ZM423.939 32.7C422.539 32.7 421.428 32.896 420.607 33.288C419.786 33.68 419.375 34.324 419.375 35.22C419.375 36.0413 419.646 36.6293 420.187 36.984C420.747 37.32 421.438 37.488 422.259 37.488C422.894 37.488 423.444 37.3853 423.911 37.18C424.396 36.956 424.798 36.6667 425.115 36.312C425.432 35.9573 425.675 35.5467 425.843 35.08C426.011 34.5947 426.104 34.0813 426.123 33.54V32.7H423.939Z" fill="black"/>
<defs>
<clipPath id="clip0_619_8">
<rect width="95" height="60" fill="white"/>
</clipPath>
</defs>
</svg>
