<svg width="95" height="60" viewBox="0 0 95 60" fill="none" xmlns="http://www.w3.org/2000/svg">
<g clip-path="url(#clip0_502_196)">
<path d="M90.8023 42.9831L90.8028 42.9843C93.4362 49.7561 88.3936 57.0508 81.1768 56.9756H81.1716H8.4403C5.39907 56.9756 2.86621 54.5131 2.86621 51.4015C2.86621 47.8553 6.19838 45.177 9.66964 45.9726L9.67343 45.9734L31.4455 50.7853L32.3491 50.985L32.0209 50.1198C31.1956 47.9442 31.1192 45.4696 32.0975 42.9864L32.0987 42.9831L47.4411 3.23242L50.2898 6.08111C53.3024 9.0937 57.295 10.7239 61.4505 10.7239C65.6061 10.7239 69.5986 9.0937 72.6112 6.08111L75.4599 3.23242L90.8023 42.9831Z" stroke="white"/>
<path d="M52.243 24.681C52.593 24.331 53.0678 24.1343 53.5628 24.1343C54.0579 24.1343 54.5326 24.331 54.8827 24.681C55.2327 25.0311 55.4293 25.5058 55.4293 26.0008C55.4293 26.4959 55.2327 26.9706 54.8827 27.3207C54.5326 27.6707 54.0579 27.8674 53.5628 27.8674C53.0678 27.8674 52.593 27.6707 52.243 27.3207C51.8929 26.9706 51.6963 26.4959 51.6963 26.0008C51.6963 25.5058 51.8929 25.0311 52.243 24.681ZM68.0198 24.681C68.3699 24.331 68.8446 24.1343 69.3397 24.1343C69.8347 24.1343 70.3095 24.331 70.6595 24.681C71.0095 25.0311 71.2062 25.5058 71.2062 26.0008C71.2062 26.4959 71.0095 26.9706 70.6595 27.3207C70.3095 27.6707 69.8347 27.8674 69.3397 27.8674C68.8446 27.8674 68.3699 27.6707 68.0198 27.3207C67.6698 26.9706 67.4731 26.4959 67.4731 26.0008C67.4731 25.5058 67.6698 25.0311 68.0198 24.681Z" fill="#07182B" stroke="white"/>
<path d="M93.0114 42.1945L93.0123 42.197C94.5286 46.0636 93.9985 50.4644 91.6461 53.879L91.6433 53.8832C89.2927 57.3713 85.3476 59.4212 81.1719 59.4212H73.2835C72.2186 59.4212 71.4169 58.6196 71.4169 57.5547C71.4169 55.3064 69.6154 53.5049 67.3671 53.5049C65.1262 53.5049 63.3174 55.2992 63.3174 57.4758V57.5547C63.3174 58.5629 62.4941 59.4212 61.5297 59.4212H61.5141L61.4985 59.4222C60.5316 59.4826 59.6545 58.6907 59.5843 57.6959V57.6957V57.6953V57.6949V57.6945V57.6942V57.6938V57.6934V57.693V57.6926V57.6922V57.6918V57.6915V57.6911V57.6907V57.6903V57.6899V57.6896V57.6892V57.6888V57.6885V57.6881V57.6877V57.6874V57.687V57.6866V57.6863V57.6859V57.6855V57.6852V57.6848V57.6845V57.6841V57.6838V57.6834V57.6831V57.6827V57.6824V57.682V57.6817V57.6813V57.681V57.6807V57.6803V57.68V57.6796V57.6793V57.679V57.6786V57.6783V57.678V57.6776V57.6773V57.677V57.6767V57.6763V57.676V57.6757V57.6754V57.675V57.6747V57.6744V57.6741V57.6738V57.6735V57.6731V57.6728V57.6725V57.6722V57.6719V57.6716V57.6713V57.671V57.6707V57.6704V57.6701V57.6698V57.6695V57.6692V57.6689V57.6686V57.6683V57.668V57.6677V57.6674V57.6671V57.6668V57.6665V57.6662V57.6659V57.6656V57.6653V57.665V57.6648V57.6645V57.6642V57.6639V57.6636V57.6633V57.6631V57.6628V57.6625V57.6622V57.6619V57.6617V57.6614V57.6611V57.6608V57.6606V57.6603V57.66V57.6597V57.6595V57.6592V57.6589V57.6587V57.6584V57.6581V57.6579V57.6576V57.6573V57.6571V57.6568V57.6565V57.6563V57.656V57.6557V57.6555V57.6552V57.655V57.6547V57.6545V57.6542V57.6539V57.6537V57.6534V57.6532V57.6529V57.6527V57.6524V57.6522V57.6519V57.6517V57.6514V57.6512V57.6509V57.6507V57.6504V57.6502V57.6499V57.6497V57.6494V57.6492V57.6489V57.6487V57.6484V57.6482V57.6479V57.6477V57.6475V57.6472V57.647V57.6467V57.6465V57.6462V57.646V57.6458V57.6455V57.6453V57.645V57.6448V57.6446V57.6443V57.6441V57.6438V57.6436V57.6434V57.6431V57.6429V57.6427V57.6424V57.6422V57.6419V57.6417V57.6415V57.6412V57.641V57.6408V57.6405V57.6403V57.6401V57.6398V57.6396V57.6394V57.6391V57.6389V57.6387V57.6384V57.6382V57.638V57.6377V57.6375V57.6373V57.637V57.6368V57.6366V57.6363V57.6361V57.6359V57.6357V57.6354V57.6352V57.635V57.6347V57.6345V57.6343V57.634V57.6338V57.6336V57.6333V57.6331V57.6329V57.6326V57.6324V57.6322V57.632V57.6317V57.6315V57.6313V57.631V57.6308V57.6306V57.6303V57.6301V57.6299V57.6296V57.6294V57.6292V57.6289V57.6287V57.6285V57.6282V57.628V57.6278V57.6275V57.6273V57.6271V57.6268V57.6266V57.6264V57.6261V57.6259V57.6257V57.6254V57.6252V57.625V57.6247V57.6245V57.6243V57.624V57.6238V57.6235V57.6233V57.6231V57.6228V57.6226V57.6223V57.6221V57.6219V57.6216V57.6214V57.6211V57.6209V57.6207V57.6204V57.6202V57.6199V57.6197V57.6195V57.6192V57.619V57.6187V57.6185V57.6182V57.618V57.6177V57.6175V57.6172V57.617V57.6167V57.6165V57.6162V57.616V57.6157V57.6155V57.6152V57.615V57.6147V57.6145V57.6142V57.614V57.6137V57.6135V57.6132V57.613V57.6127V57.6124V57.6122V57.6119V57.6117V57.6114V57.6111V57.6109V57.6106V57.6103V57.6101V57.6098V57.6096V57.6093V57.609V57.6088V57.6085V57.6082V57.6079V57.6077V57.6074V57.6071V57.6069V57.6066V57.6063V57.606V57.6058V57.6055V57.6052V57.6049V57.6046V57.6044V57.6041V57.6038V57.6035V57.6032V57.603V57.6027V57.6024V57.6021V57.6018V57.6015V57.6012V57.6009V57.6007V57.6004V57.6001V57.5998V57.5995V57.5992V57.5989V57.5986V57.5983V57.598V57.5977V57.5974V57.5971V57.5968V57.5965V57.5962V57.5959V57.5956V57.5952V57.5949V57.5946V57.5943V57.594V57.5937V57.5934V57.5931V57.5927V57.5924V57.5921V57.5918V57.5915V57.5911V57.5908V57.5905V57.5902V57.5898V57.5895V57.5892V57.5888V57.5885V57.5882V57.5878V57.5875V57.5872V57.5868V57.5865V57.5861V57.5858V57.5855V57.5851V57.5848V57.5844V57.5841V57.5837V57.5834V57.583V57.5827V57.5823V57.582V57.5816V57.5812V57.5809V57.5805V57.5802V57.5798V57.5794V57.5791V57.5787V57.5783V57.578V57.5776V57.5772V57.5768V57.5764V57.5761V57.5757V57.5753V57.5749V57.5745V57.5742V57.5738V57.5734V57.573V57.5726V57.5722V57.5718V57.5714V57.571V57.5706V57.5702V57.5698V57.5694V57.569V57.5686V57.5682V57.5678V57.5674V57.5669V57.5665V57.5661V57.5657V57.5653V57.5649V57.5644V57.564V57.5636V57.5632V57.5627V57.5623V57.5619V57.5614V57.561V57.5605V57.5601V57.5597V57.5592V57.5588V57.5583V57.5579V57.5574V57.557V57.5565V57.5561V57.5556V57.5551V57.5547V57.4758C59.5843 56.3879 59.1309 55.3954 58.4124 54.6768L58.402 54.6665L58.391 54.6567C57.6079 53.9606 56.6262 53.5049 55.5345 53.5049C54.4864 53.5049 53.3868 53.8541 52.6365 54.6982C51.9405 55.4813 51.4847 56.463 51.4847 57.5547C51.4847 58.6196 50.6831 59.4212 49.6182 59.4212C48.5533 59.4212 47.7517 58.6196 47.7517 57.5547C47.7517 55.4821 48.5642 53.5573 50.0506 52.0708C51.5371 50.5844 53.4619 49.7718 55.5345 49.7718C57.6071 49.7718 59.5319 50.5844 61.0184 52.0708L61.022 52.0744L61.0238 52.0762L61.0256 52.078L61.029 52.0814L61.0306 52.0831L61.0311 52.0835L61.0315 52.0839L61.0323 52.0847L61.0386 52.091L61.0415 52.094L61.0444 52.0968L61.064 52.1164L61.078 52.1304L61.0874 52.1398L61.0931 52.1455L61.096 52.1485L61.0971 52.1495L61.0973 52.1497L61.4508 51.7961L61.8133 52.1405C63.2186 50.6613 65.2178 49.7718 67.3671 49.7718C70.9245 49.7718 73.8916 52.1434 74.8559 55.3329L74.9633 55.6882H75.3344H81.1719C84.111 55.6882 86.779 54.1762 88.5187 51.7739C90.2788 49.3432 90.611 46.2446 89.5261 43.4892C89.5259 43.4887 89.5257 43.4883 89.5255 43.4878L75.2489 6.41574L74.9725 5.69809L74.4287 6.24187L73.561 7.1096C70.3429 10.3277 66.0531 12.0907 61.4508 12.0907C56.8489 12.0907 52.5577 10.3279 49.3385 7.1863C49.3378 7.18562 49.3371 7.18493 49.3364 7.18425L48.4729 6.32075L47.9292 5.77697L47.6528 6.49462L33.3761 43.5667C33.3759 43.5674 33.3756 43.568 33.3754 43.5687C32.2857 46.3366 32.7119 49.3467 34.3719 51.8368C36.0429 54.3434 38.7238 55.767 41.7298 55.767C42.7947 55.767 43.5963 56.5687 43.5963 57.6336C43.5963 58.6985 42.7947 59.5001 41.7298 59.5001H8.44061C4.06259 59.5001 0.5 55.9375 0.5 51.5595C0.5 49.0975 1.54299 46.8043 3.46023 45.3295L3.46031 45.3296L3.46954 45.3222C5.39654 43.7658 7.84274 43.2439 10.2257 43.7648C10.2262 43.7649 10.2266 43.765 10.227 43.7651L21.5779 46.2875C22.6047 46.5475 23.2619 47.5618 23.0224 48.5195C22.7649 49.5498 21.7485 50.2099 20.7889 49.97L20.789 49.9699L20.7754 49.9669L9.33721 47.4426L9.33422 47.4419C8.10124 47.1777 6.76281 47.4358 5.7657 48.2471C4.68497 49.062 4.15417 50.3191 4.15417 51.5595C4.15417 53.8866 6.0346 55.767 8.36173 55.767H31.7115H32.9186L32.065 54.9135C31.8734 54.7219 31.7296 54.5157 31.5697 54.2866C31.4955 54.1803 31.4179 54.069 31.3304 53.9519C28.9796 50.4566 28.4539 46.0584 29.9682 42.197L29.9692 42.1945L45.586 1.73253C45.5864 1.73162 45.5868 1.73071 45.5871 1.72979C45.846 1.08485 46.3478 0.65983 46.9553 0.538324V0.538435L46.9657 0.536128C47.51 0.415181 48.2031 0.602208 48.6336 1.03266L52.0227 4.42178C54.4862 6.96581 57.8503 8.35757 61.4508 8.35757C65.0542 8.35757 68.4157 6.96395 70.9549 4.42468L74.347 1.03266C74.773 0.6066 75.3816 0.41722 76.0023 0.533885C76.6422 0.732684 77.1443 1.17929 77.397 1.73908L93.0114 42.1945Z" fill="#07182B" stroke="white"/>
<circle cx="55.5" cy="57.5" r="3.5" fill="#F2C94C"/>
<circle cx="67.5" cy="57.5" r="3.5" fill="#F2C94C"/>
</g>
<defs>
<clipPath id="clip0_502_196">
<rect width="95" height="60" fill="white"/>
</clipPath>
</defs>
</svg>
