<svg width="308" height="29" viewBox="0 0 308 29" fill="none" xmlns="http://www.w3.org/2000/svg">
<path d="M0.464 2.176H6.512C7.33333 2.176 8.136 2.26 8.92 2.428C9.704 2.596 10.404 2.876 11.02 3.268C11.636 3.64133 12.1307 4.136 12.504 4.752C12.896 5.368 13.092 6.13333 13.092 7.048C13.092 8.20533 12.7747 9.16667 12.14 9.932C11.524 10.6787 10.684 11.2107 9.62 11.528V11.584C10.2547 11.64 10.8427 11.808 11.384 12.088C11.944 12.3493 12.42 12.6947 12.812 13.124C13.2227 13.5533 13.54 14.0573 13.764 14.636C13.988 15.196 14.1 15.8027 14.1 16.456C14.1 17.5573 13.8667 18.4627 13.4 19.172C12.952 19.8813 12.3547 20.4507 11.608 20.88C10.88 21.2907 10.0493 21.58 9.116 21.748C8.20133 21.916 7.28667 22 6.372 22H0.464V2.176ZM2.816 10.576H6.064C6.624 10.576 7.16533 10.5387 7.688 10.464C8.22933 10.3893 8.71467 10.24 9.144 10.016C9.57333 9.77333 9.91867 9.44667 10.18 9.036C10.4413 8.60667 10.572 8.04667 10.572 7.356C10.572 6.74 10.4507 6.24533 10.208 5.872C9.96533 5.48 9.63867 5.172 9.228 4.948C8.836 4.724 8.37867 4.57467 7.856 4.5C7.352 4.40667 6.83867 4.36 6.316 4.36H2.816V10.576ZM2.816 19.816H6.792C7.37067 19.816 7.94 19.76 8.5 19.648C9.07867 19.5173 9.592 19.3213 10.04 19.06C10.5067 18.78 10.88 18.4253 11.16 17.996C11.44 17.548 11.58 17.0067 11.58 16.372C11.58 15.6813 11.44 15.1027 11.16 14.636C10.8987 14.1693 10.544 13.796 10.096 13.516C9.66667 13.236 9.16267 13.04 8.584 12.928C8.024 12.816 7.44533 12.76 6.848 12.76H2.816V19.816ZM17.7087 12.004C17.7087 11.4067 17.6901 10.8467 17.6527 10.324C17.6154 9.80133 17.5967 9.32533 17.5967 8.896H19.6687C19.6687 9.25067 19.6781 9.60533 19.6967 9.96C19.7154 10.3147 19.7247 10.6787 19.7247 11.052H19.7807C19.9301 10.7347 20.1354 10.4267 20.3967 10.128C20.6767 9.82933 21.0034 9.568 21.3767 9.344C21.7501 9.10133 22.1701 8.91467 22.6367 8.784C23.1034 8.63467 23.6074 8.56 24.1487 8.56C24.2981 8.56 24.4474 8.56933 24.5967 8.588C24.7461 8.60667 24.8954 8.644 25.0447 8.7L24.9047 10.912C24.5314 10.8 24.1394 10.744 23.7287 10.744C22.3847 10.744 21.4047 11.1827 20.7887 12.06C20.1914 12.9187 19.8927 14.104 19.8927 15.616V22H17.7087V12.004ZM38.7643 19.62C37.9803 20.628 37.1216 21.3373 36.1883 21.748C35.2549 22.14 34.1723 22.336 32.9403 22.336C31.9136 22.336 30.9896 22.1587 30.1683 21.804C29.3469 21.4307 28.6469 20.936 28.0683 20.32C27.5083 19.704 27.0696 18.976 26.7523 18.136C26.4536 17.296 26.3043 16.4 26.3043 15.448C26.3043 14.44 26.4723 13.516 26.8083 12.676C27.1443 11.8173 27.6109 11.0893 28.2083 10.492C28.8056 9.876 29.5149 9.4 30.3363 9.064C31.1576 8.728 32.0536 8.56 33.0243 8.56C33.9389 8.56 34.7789 8.71867 35.5443 9.036C36.3096 9.33467 36.9629 9.78267 37.5043 10.38C38.0643 10.9587 38.4936 11.6773 38.7923 12.536C39.0909 13.376 39.2403 14.3373 39.2403 15.42V16.12H28.6563C28.6936 16.68 28.8243 17.2213 29.0483 17.744C29.2909 18.248 29.5989 18.696 29.9723 19.088C30.3456 19.4613 30.7843 19.76 31.2883 19.984C31.7923 20.208 32.3429 20.32 32.9403 20.32C33.8923 20.32 34.6949 20.152 35.3483 19.816C36.0016 19.48 36.5896 18.9853 37.1123 18.332L38.7643 19.62ZM36.8883 14.272C36.8509 13.152 36.4869 12.256 35.7963 11.584C35.1056 10.912 34.1536 10.576 32.9403 10.576C31.7269 10.576 30.7469 10.912 30.0003 11.584C29.2536 12.256 28.8056 13.152 28.6563 14.272H36.8883ZM42.6189 12.004C42.6189 11.4067 42.6002 10.8467 42.5629 10.324C42.5255 9.80133 42.5069 9.32533 42.5069 8.896H44.5789C44.5789 9.25067 44.5882 9.60533 44.6069 9.96C44.6255 10.3147 44.6349 10.6787 44.6349 11.052H44.6909C44.8402 10.7347 45.0455 10.4267 45.3069 10.128C45.5869 9.82933 45.9135 9.568 46.2869 9.344C46.6602 9.10133 47.0802 8.91467 47.5469 8.784C48.0135 8.63467 48.5175 8.56 49.0589 8.56C49.9175 8.56 50.6549 8.69067 51.2709 8.952C51.9055 9.21333 52.4282 9.57733 52.8389 10.044C53.2495 10.5107 53.5482 11.08 53.7349 11.752C53.9402 12.4053 54.0429 13.124 54.0429 13.908V22H51.8589V14.132C51.8589 13.0307 51.6162 12.1627 51.1309 11.528C50.6455 10.8933 49.8895 10.576 48.8629 10.576C48.1535 10.576 47.5375 10.6973 47.0149 10.94C46.5109 11.1827 46.0909 11.528 45.7549 11.976C45.4375 12.424 45.1949 12.956 45.0269 13.572C44.8775 14.188 44.8029 14.8693 44.8029 15.616V22H42.6189V12.004ZM69.0695 19.676H69.0135C68.6028 20.4227 67.9495 21.0573 67.0535 21.58C66.1761 22.084 65.1495 22.336 63.9735 22.336C63.0588 22.336 62.2001 22.168 61.3975 21.832C60.5948 21.4773 59.8948 20.992 59.2975 20.376C58.7188 19.76 58.2615 19.032 57.9255 18.192C57.5895 17.352 57.4215 16.4373 57.4215 15.448C57.4215 14.4587 57.5895 13.544 57.9255 12.704C58.2615 11.864 58.7281 11.136 59.3255 10.52C59.9228 9.904 60.6415 9.428 61.4815 9.092C62.3401 8.73733 63.2828 8.56 64.3095 8.56C65.2615 8.56 66.1295 8.756 66.9135 9.148C67.7161 9.54 68.4161 10.0907 69.0135 10.8H69.0695V0.831999H71.2535V22H69.0695V19.676ZM69.0695 15.448C69.0695 14.7573 68.9575 14.1227 68.7335 13.544C68.5281 12.9467 68.2201 12.4333 67.8095 12.004C67.3988 11.556 66.9041 11.2107 66.3255 10.968C65.7655 10.7067 65.1308 10.576 64.4215 10.576C63.7121 10.576 63.0681 10.7067 62.4895 10.968C61.9295 11.2107 61.4441 11.556 61.0335 12.004C60.6228 12.4333 60.3055 12.9467 60.0815 13.544C59.8761 14.1227 59.7735 14.7573 59.7735 15.448C59.7735 16.1387 59.8761 16.7827 60.0815 17.38C60.3055 17.9587 60.6228 18.472 61.0335 18.92C61.4441 19.3493 61.9295 19.6947 62.4895 19.956C63.0681 20.1987 63.7121 20.32 64.4215 20.32C65.1308 20.32 65.7655 20.1987 66.3255 19.956C66.9041 19.6947 67.3988 19.3493 67.8095 18.92C68.2201 18.472 68.5281 17.9587 68.7335 17.38C68.9575 16.7827 69.0695 16.1387 69.0695 15.448ZM75.1267 10.576C75.7987 9.88533 76.592 9.38133 77.5067 9.064C78.44 8.728 79.3827 8.56 80.3347 8.56C82.276 8.56 83.676 9.01733 84.5347 9.932C85.3933 10.8467 85.8227 12.2373 85.8227 14.104V19.732C85.8227 20.1053 85.8413 20.4973 85.8787 20.908C85.916 21.3 85.9627 21.664 86.0187 22H83.9187C83.844 21.7013 83.7973 21.3747 83.7787 21.02C83.7787 20.6467 83.7787 20.32 83.7787 20.04H83.7227C83.2933 20.712 82.7147 21.2627 81.9867 21.692C81.2773 22.1213 80.4187 22.336 79.4107 22.336C78.7387 22.336 78.104 22.252 77.5067 22.084C76.928 21.916 76.4147 21.6733 75.9667 21.356C75.5373 21.02 75.192 20.6093 74.9307 20.124C74.6693 19.6387 74.5387 19.0787 74.5387 18.444C74.5387 17.3613 74.8187 16.512 75.3787 15.896C75.9387 15.28 76.6293 14.8227 77.4507 14.524C78.2907 14.2253 79.1867 14.0387 80.1387 13.964C81.1093 13.8893 81.996 13.852 82.7987 13.852H83.6387V13.46C83.6387 12.508 83.3493 11.7893 82.7707 11.304C82.2107 10.8187 81.4173 10.576 80.3907 10.576C79.6813 10.576 78.9813 10.6973 78.2907 10.94C77.6187 11.164 77.0213 11.5187 76.4987 12.004L75.1267 10.576ZM81.4547 15.7C80.0547 15.7 78.944 15.896 78.1227 16.288C77.3013 16.68 76.8907 17.324 76.8907 18.22C76.8907 19.0413 77.1613 19.6293 77.7027 19.984C78.2627 20.32 78.9533 20.488 79.7747 20.488C80.4093 20.488 80.96 20.3853 81.4267 20.18C81.912 19.956 82.3133 19.6667 82.6307 19.312C82.948 18.9573 83.1907 18.5467 83.3587 18.08C83.5267 17.5947 83.62 17.0813 83.6387 16.54V15.7H81.4547ZM114.855 20.656C113.716 21.2907 112.512 21.7573 111.243 22.056C109.992 22.3547 108.723 22.504 107.435 22.504C105.886 22.504 104.467 22.252 103.179 21.748C101.891 21.244 100.771 20.5347 99.8192 19.62C98.8858 18.7053 98.1578 17.6133 97.6352 16.344C97.1125 15.056 96.8512 13.6373 96.8512 12.088C96.8512 10.52 97.1218 9.10133 97.6632 7.832C98.2232 6.544 98.9885 5.452 99.9592 4.556C100.93 3.64133 102.059 2.932 103.347 2.428C104.635 1.924 106.026 1.672 107.519 1.672C108.826 1.672 110.076 1.868 111.271 2.26C112.484 2.652 113.567 3.324 114.519 4.276L112.755 6.124C112.083 5.396 111.262 4.836 110.291 4.444C109.339 4.052 108.359 3.856 107.351 3.856C106.212 3.856 105.158 4.06133 104.187 4.472C103.216 4.88267 102.367 5.452 101.639 6.18C100.93 6.908 100.37 7.776 99.9592 8.784C99.5672 9.792 99.3712 10.8933 99.3712 12.088C99.3712 13.264 99.5672 14.356 99.9592 15.364C100.37 16.372 100.93 17.2493 101.639 17.996C102.367 18.724 103.235 19.2933 104.243 19.704C105.251 20.1147 106.362 20.32 107.575 20.32C108.378 20.32 109.218 20.2267 110.095 20.04C110.972 19.8347 111.775 19.5453 112.503 19.172V13.096H107.939V10.912H114.855V20.656ZM118.644 15.448C118.644 14.4213 118.821 13.488 119.176 12.648C119.531 11.808 120.016 11.0893 120.632 10.492C121.248 9.876 121.985 9.4 122.844 9.064C123.703 8.728 124.636 8.56 125.644 8.56C126.652 8.56 127.585 8.728 128.444 9.064C129.303 9.4 130.04 9.876 130.656 10.492C131.272 11.0893 131.757 11.808 132.112 12.648C132.467 13.488 132.644 14.4213 132.644 15.448C132.644 16.4747 132.467 17.408 132.112 18.248C131.757 19.088 131.272 19.816 130.656 20.432C130.04 21.0293 129.303 21.496 128.444 21.832C127.585 22.168 126.652 22.336 125.644 22.336C124.636 22.336 123.703 22.168 122.844 21.832C121.985 21.496 121.248 21.0293 120.632 20.432C120.016 19.816 119.531 19.088 119.176 18.248C118.821 17.408 118.644 16.4747 118.644 15.448ZM120.996 15.448C120.996 16.1387 121.099 16.7827 121.304 17.38C121.528 17.9587 121.845 18.472 122.256 18.92C122.667 19.3493 123.152 19.6947 123.712 19.956C124.291 20.1987 124.935 20.32 125.644 20.32C126.353 20.32 126.988 20.1987 127.548 19.956C128.127 19.6947 128.621 19.3493 129.032 18.92C129.443 18.472 129.751 17.9587 129.956 17.38C130.18 16.7827 130.292 16.1387 130.292 15.448C130.292 14.7573 130.18 14.1227 129.956 13.544C129.751 12.9467 129.443 12.4333 129.032 12.004C128.621 11.556 128.127 11.2107 127.548 10.968C126.988 10.7067 126.353 10.576 125.644 10.576C124.935 10.576 124.291 10.7067 123.712 10.968C123.152 11.2107 122.667 11.556 122.256 12.004C121.845 12.4333 121.528 12.9467 121.304 13.544C121.099 14.1227 120.996 14.7573 120.996 15.448ZM136.025 12.004C136.025 11.4067 136.006 10.8467 135.969 10.324C135.932 9.80133 135.913 9.32533 135.913 8.896H137.985C137.985 9.25067 137.994 9.60533 138.013 9.96C138.032 10.3147 138.041 10.6787 138.041 11.052H138.097C138.246 10.7347 138.452 10.4267 138.713 10.128C138.993 9.82933 139.32 9.568 139.693 9.344C140.066 9.10133 140.486 8.91467 140.953 8.784C141.42 8.63467 141.924 8.56 142.465 8.56C143.324 8.56 144.061 8.69067 144.677 8.952C145.312 9.21333 145.834 9.57733 146.245 10.044C146.656 10.5107 146.954 11.08 147.141 11.752C147.346 12.4053 147.449 13.124 147.449 13.908V22H145.265V14.132C145.265 13.0307 145.022 12.1627 144.537 11.528C144.052 10.8933 143.296 10.576 142.269 10.576C141.56 10.576 140.944 10.6973 140.421 10.94C139.917 11.1827 139.497 11.528 139.161 11.976C138.844 12.424 138.601 12.956 138.433 13.572C138.284 14.188 138.209 14.8693 138.209 15.616V22H136.025V12.004ZM150.352 20.292L158.052 10.744H150.688V8.896H160.908V10.576L153.208 20.152H161.104V22H150.352V20.292ZM163.857 10.576C164.529 9.88533 165.322 9.38133 166.237 9.064C167.17 8.728 168.113 8.56 169.065 8.56C171.006 8.56 172.406 9.01733 173.265 9.932C174.124 10.8467 174.553 12.2373 174.553 14.104V19.732C174.553 20.1053 174.572 20.4973 174.609 20.908C174.646 21.3 174.693 21.664 174.749 22H172.649C172.574 21.7013 172.528 21.3747 172.509 21.02C172.509 20.6467 172.509 20.32 172.509 20.04H172.453C172.024 20.712 171.445 21.2627 170.717 21.692C170.008 22.1213 169.149 22.336 168.141 22.336C167.469 22.336 166.834 22.252 166.237 22.084C165.658 21.916 165.145 21.6733 164.697 21.356C164.268 21.02 163.922 20.6093 163.661 20.124C163.4 19.6387 163.269 19.0787 163.269 18.444C163.269 17.3613 163.549 16.512 164.109 15.896C164.669 15.28 165.36 14.8227 166.181 14.524C167.021 14.2253 167.917 14.0387 168.869 13.964C169.84 13.8893 170.726 13.852 171.529 13.852H172.369V13.46C172.369 12.508 172.08 11.7893 171.501 11.304C170.941 10.8187 170.148 10.576 169.121 10.576C168.412 10.576 167.712 10.6973 167.021 10.94C166.349 11.164 165.752 11.5187 165.229 12.004L163.857 10.576ZM170.185 15.7C168.785 15.7 167.674 15.896 166.853 16.288C166.032 16.68 165.621 17.324 165.621 18.22C165.621 19.0413 165.892 19.6293 166.433 19.984C166.993 20.32 167.684 20.488 168.505 20.488C169.14 20.488 169.69 20.3853 170.157 20.18C170.642 19.956 171.044 19.6667 171.361 19.312C171.678 18.9573 171.921 18.5467 172.089 18.08C172.257 17.5947 172.35 17.0813 172.369 16.54V15.7H170.185ZM170.213 1.728H173.293L169.289 5.76H167.301L170.213 1.728ZM178.741 0.831999H180.925V22H178.741V0.831999ZM196.975 19.62C196.191 20.628 195.333 21.3373 194.399 21.748C193.466 22.14 192.383 22.336 191.151 22.336C190.125 22.336 189.201 22.1587 188.379 21.804C187.558 21.4307 186.858 20.936 186.279 20.32C185.719 19.704 185.281 18.976 184.963 18.136C184.665 17.296 184.515 16.4 184.515 15.448C184.515 14.44 184.683 13.516 185.019 12.676C185.355 11.8173 185.822 11.0893 186.419 10.492C187.017 9.876 187.726 9.4 188.547 9.064C189.369 8.728 190.265 8.56 191.235 8.56C192.15 8.56 192.99 8.71867 193.755 9.036C194.521 9.33467 195.174 9.78267 195.715 10.38C196.275 10.9587 196.705 11.6773 197.003 12.536C197.302 13.376 197.451 14.3373 197.451 15.42V16.12H186.867C186.905 16.68 187.035 17.2213 187.259 17.744C187.502 18.248 187.81 18.696 188.183 19.088C188.557 19.4613 188.995 19.76 189.499 19.984C190.003 20.208 190.554 20.32 191.151 20.32C192.103 20.32 192.906 20.152 193.559 19.816C194.213 19.48 194.801 18.9853 195.323 18.332L196.975 19.62ZM195.099 14.272C195.062 13.152 194.698 12.256 194.007 11.584C193.317 10.912 192.365 10.576 191.151 10.576C189.938 10.576 188.958 10.912 188.211 11.584C187.465 12.256 187.017 13.152 186.867 14.272H195.099ZM199.598 20.292L207.298 10.744H199.934V8.896H210.154V10.576L202.454 20.152H210.35V22H199.598V20.292ZM230.668 22.504C229.156 22.504 227.766 22.2427 226.496 21.72C225.246 21.1973 224.154 20.4787 223.22 19.564C222.306 18.6307 221.587 17.5293 221.064 16.26C220.56 14.972 220.308 13.5813 220.308 12.088C220.308 10.5947 220.56 9.21333 221.064 7.944C221.587 6.656 222.306 5.55467 223.22 4.64C224.154 3.70667 225.246 2.97867 226.496 2.456C227.766 1.93333 229.156 1.672 230.668 1.672C232.18 1.672 233.562 1.93333 234.812 2.456C236.082 2.97867 237.174 3.70667 238.088 4.64C239.022 5.55467 239.74 6.656 240.244 7.944C240.767 9.21333 241.028 10.5947 241.028 12.088C241.028 13.5813 240.767 14.972 240.244 16.26C239.74 17.5293 239.022 18.6307 238.088 19.564C237.174 20.4787 236.082 21.1973 234.812 21.72C233.562 22.2427 232.18 22.504 230.668 22.504ZM230.668 20.32C231.826 20.32 232.88 20.1053 233.832 19.676C234.803 19.2467 235.634 18.6587 236.324 17.912C237.015 17.1653 237.547 16.2973 237.92 15.308C238.312 14.3 238.508 13.2267 238.508 12.088C238.508 10.9493 238.312 9.88533 237.92 8.896C237.547 7.888 237.015 7.01067 236.324 6.264C235.634 5.51733 234.803 4.92933 233.832 4.5C232.88 4.07067 231.826 3.856 230.668 3.856C229.511 3.856 228.447 4.07067 227.476 4.5C226.524 4.92933 225.703 5.51733 225.012 6.264C224.322 7.01067 223.78 7.888 223.388 8.896C223.015 9.88533 222.828 10.9493 222.828 12.088C222.828 13.2267 223.015 14.3 223.388 15.308C223.78 16.2973 224.322 17.1653 225.012 17.912C225.703 18.6587 226.524 19.2467 227.476 19.676C228.447 20.1053 229.511 20.32 230.668 20.32ZM244.416 12.004C244.416 11.4067 244.397 10.8467 244.36 10.324C244.322 9.80133 244.304 9.32533 244.304 8.896H246.376C246.376 9.25067 246.385 9.60533 246.404 9.96C246.422 10.3147 246.432 10.6787 246.432 11.052H246.488C246.637 10.7347 246.842 10.4267 247.104 10.128C247.384 9.82933 247.71 9.568 248.084 9.344C248.457 9.10133 248.877 8.91467 249.344 8.784C249.81 8.63467 250.314 8.56 250.856 8.56C251.005 8.56 251.154 8.56933 251.304 8.588C251.453 8.60667 251.602 8.644 251.752 8.7L251.612 10.912C251.238 10.8 250.846 10.744 250.436 10.744C249.092 10.744 248.112 11.1827 247.496 12.06C246.898 12.9187 246.6 14.104 246.6 15.616V22H244.416V12.004ZM261.428 10.744H257.564V17.296C257.564 17.7253 257.573 18.1267 257.592 18.5C257.61 18.8547 257.685 19.172 257.816 19.452C257.946 19.7133 258.142 19.928 258.404 20.096C258.665 20.2453 259.038 20.32 259.524 20.32C259.841 20.32 260.168 20.2827 260.504 20.208C260.84 20.1333 261.157 20.0213 261.456 19.872L261.54 21.86C261.166 22.028 260.746 22.1493 260.28 22.224C259.832 22.2987 259.402 22.336 258.992 22.336C258.208 22.336 257.582 22.2333 257.116 22.028C256.649 21.8227 256.285 21.5333 256.024 21.16C255.762 20.7867 255.585 20.3293 255.492 19.788C255.417 19.228 255.38 18.612 255.38 17.94V10.744H252.524V8.896H255.38V5.172H257.564V8.896H261.428V10.744ZM275.807 19.62C275.023 20.628 274.165 21.3373 273.231 21.748C272.298 22.14 271.215 22.336 269.983 22.336C268.957 22.336 268.033 22.1587 267.211 21.804C266.39 21.4307 265.69 20.936 265.111 20.32C264.551 19.704 264.113 18.976 263.795 18.136C263.497 17.296 263.347 16.4 263.347 15.448C263.347 14.44 263.515 13.516 263.851 12.676C264.187 11.8173 264.654 11.0893 265.251 10.492C265.849 9.876 266.558 9.4 267.379 9.064C268.201 8.728 269.097 8.56 270.067 8.56C270.982 8.56 271.822 8.71867 272.587 9.036C273.353 9.33467 274.006 9.78267 274.547 10.38C275.107 10.9587 275.537 11.6773 275.835 12.536C276.134 13.376 276.283 14.3373 276.283 15.42V16.12H265.699C265.737 16.68 265.867 17.2213 266.091 17.744C266.334 18.248 266.642 18.696 267.015 19.088C267.389 19.4613 267.827 19.76 268.331 19.984C268.835 20.208 269.386 20.32 269.983 20.32C270.935 20.32 271.738 20.152 272.391 19.816C273.045 19.48 273.633 18.9853 274.155 18.332L275.807 19.62ZM273.931 14.272C273.894 13.152 273.53 12.256 272.839 11.584C272.149 10.912 271.197 10.576 269.983 10.576C268.77 10.576 267.79 10.912 267.043 11.584C266.297 12.256 265.849 13.152 265.699 14.272H273.931ZM292.738 21.412C292.738 23.8013 292.122 25.612 290.89 26.844C289.677 28.0947 287.913 28.72 285.598 28.72C284.31 28.72 283.143 28.5333 282.098 28.16C281.071 27.7867 280.091 27.1427 279.158 26.228L280.726 24.436C281.417 25.1827 282.145 25.7427 282.91 26.116C283.694 26.508 284.59 26.704 285.598 26.704C286.569 26.704 287.371 26.5547 288.006 26.256C288.659 25.976 289.173 25.584 289.546 25.08C289.919 24.5947 290.181 24.0347 290.33 23.4C290.479 22.7653 290.554 22.1027 290.554 21.412V19.732H290.498C289.975 20.572 289.294 21.188 288.454 21.58C287.614 21.972 286.755 22.168 285.878 22.168C284.851 22.168 283.909 22 283.05 21.664C282.191 21.328 281.454 20.8613 280.838 20.264C280.222 19.6667 279.746 18.9573 279.41 18.136C279.074 17.3147 278.906 16.4187 278.906 15.448C278.906 14.384 279.074 13.4227 279.41 12.564C279.746 11.7053 280.213 10.9867 280.81 10.408C281.426 9.81067 282.163 9.35333 283.022 9.036C283.881 8.71867 284.833 8.56 285.878 8.56C286.326 8.56 286.774 8.616 287.222 8.728C287.67 8.82133 288.099 8.98 288.51 9.204C288.939 9.40933 289.322 9.68 289.658 10.016C289.994 10.3333 290.274 10.7067 290.498 11.136H290.554V8.896H292.738V21.412ZM281.258 15.448C281.258 16.12 281.379 16.7453 281.622 17.324C281.865 17.884 282.191 18.3787 282.602 18.808C283.031 19.2187 283.526 19.5453 284.086 19.788C284.646 20.0307 285.243 20.152 285.878 20.152C286.625 20.152 287.287 20.0213 287.866 19.76C288.445 19.4987 288.93 19.1533 289.322 18.724C289.733 18.276 290.041 17.772 290.246 17.212C290.451 16.6333 290.554 16.0267 290.554 15.392C290.554 14.6827 290.442 14.0387 290.218 13.46C289.994 12.8627 289.677 12.3493 289.266 11.92C288.855 11.4907 288.361 11.164 287.782 10.94C287.203 10.6973 286.569 10.576 285.878 10.576C285.187 10.576 284.553 10.7067 283.974 10.968C283.414 11.2107 282.929 11.556 282.518 12.004C282.126 12.4333 281.818 12.9467 281.594 13.544C281.37 14.1227 281.258 14.7573 281.258 15.448ZM296.611 10.576C297.283 9.88533 298.076 9.38133 298.991 9.064C299.924 8.728 300.867 8.56 301.819 8.56C303.76 8.56 305.16 9.01733 306.019 9.932C306.878 10.8467 307.307 12.2373 307.307 14.104V19.732C307.307 20.1053 307.326 20.4973 307.363 20.908C307.4 21.3 307.447 21.664 307.503 22H305.403C305.328 21.7013 305.282 21.3747 305.263 21.02C305.263 20.6467 305.263 20.32 305.263 20.04H305.207C304.778 20.712 304.199 21.2627 303.471 21.692C302.762 22.1213 301.903 22.336 300.895 22.336C300.223 22.336 299.588 22.252 298.991 22.084C298.412 21.916 297.899 21.6733 297.451 21.356C297.022 21.02 296.676 20.6093 296.415 20.124C296.154 19.6387 296.023 19.0787 296.023 18.444C296.023 17.3613 296.303 16.512 296.863 15.896C297.423 15.28 298.114 14.8227 298.935 14.524C299.775 14.2253 300.671 14.0387 301.623 13.964C302.594 13.8893 303.48 13.852 304.283 13.852H305.123V13.46C305.123 12.508 304.834 11.7893 304.255 11.304C303.695 10.8187 302.902 10.576 301.875 10.576C301.166 10.576 300.466 10.6973 299.775 10.94C299.103 11.164 298.506 11.5187 297.983 12.004L296.611 10.576ZM302.939 15.7C301.539 15.7 300.428 15.896 299.607 16.288C298.786 16.68 298.375 17.324 298.375 18.22C298.375 19.0413 298.646 19.6293 299.187 19.984C299.747 20.32 300.438 20.488 301.259 20.488C301.894 20.488 302.444 20.3853 302.911 20.18C303.396 19.956 303.798 19.6667 304.115 19.312C304.432 18.9573 304.675 18.5467 304.843 18.08C305.011 17.5947 305.104 17.0813 305.123 16.54V15.7H302.939Z" fill="white"/>
</svg>
