<svg width="44" height="45" viewBox="0 0 44 45" fill="none" xmlns="http://www.w3.org/2000/svg">
<path d="M41.0664 10.4056C39.6628 11.0431 38.1551 11.4721 36.5726 11.6656C38.1888 10.6756 39.4282 9.10805 40.0119 7.23905C38.5012 8.15555 36.8263 8.82155 35.0428 9.18155C33.6158 7.62605 31.583 6.65405 29.3331 6.65405C25.0123 6.65405 21.5099 10.2376 21.5099 14.6551C21.5099 15.2821 21.5803 15.8941 21.7123 16.4776C15.2106 16.1446 9.44657 12.9586 5.58631 8.11655C4.91457 9.29855 4.52884 10.6726 4.52884 12.1411C4.52884 14.9161 5.90897 17.3656 8.00777 18.7996C6.72591 18.7576 5.51884 18.3976 4.46431 17.7991C4.46431 17.8336 4.46431 17.8651 4.46431 17.8996C4.46431 21.7771 7.16004 25.0111 10.7402 25.7446C10.0846 25.9276 9.39231 26.0251 8.67804 26.0251C8.17497 26.0251 7.68364 25.9741 7.20697 25.8826C8.20284 29.0611 11.0922 31.3756 14.5154 31.4401C11.8387 33.5866 8.46537 34.8661 4.79871 34.8661C4.16804 34.8661 3.54471 34.8286 2.93164 34.7536C6.39444 37.0231 10.5055 38.3476 14.9246 38.3476C29.3155 38.3476 37.1827 26.1556 37.1827 15.5821C37.1827 15.2356 37.1754 14.8906 37.1607 14.5471C38.6904 13.4176 40.0178 12.0091 41.0664 10.4056Z" fill="#3F4F6A"/>
</svg>
