<svg width="44" height="45" viewBox="0 0 44 45" fill="none" xmlns="http://www.w3.org/2000/svg">
<path d="M41.0664 10.4058C39.6628 11.0433 38.1551 11.4723 36.5726 11.6658C38.1888 10.6758 39.4282 9.1083 40.0119 7.2393C38.5012 8.1558 36.8263 8.8218 35.0428 9.1818C33.6158 7.6263 31.583 6.6543 29.3331 6.6543C25.0123 6.6543 21.5099 10.2378 21.5099 14.6553C21.5099 15.2823 21.5803 15.8943 21.7123 16.4778C15.2106 16.1448 9.44657 12.9588 5.58631 8.1168C4.91457 9.2988 4.52884 10.6728 4.52884 12.1413C4.52884 14.9163 5.90897 17.3658 8.00777 18.7998C6.72591 18.7578 5.51884 18.3978 4.46431 17.7993C4.46431 17.8338 4.46431 17.8653 4.46431 17.8998C4.46431 21.7773 7.16004 25.0113 10.7402 25.7448C10.0846 25.9278 9.39231 26.0253 8.67804 26.0253C8.17497 26.0253 7.68364 25.9743 7.20697 25.8828C8.20284 29.0613 11.0922 31.3758 14.5154 31.4403C11.8387 33.5868 8.46537 34.8663 4.79871 34.8663C4.16804 34.8663 3.54471 34.8288 2.93164 34.7538C6.39444 37.0233 10.5055 38.3478 14.9246 38.3478C29.3155 38.3478 37.1827 26.1558 37.1827 15.5823C37.1827 15.2358 37.1754 14.8908 37.1607 14.5473C38.6904 13.4178 40.0178 12.0093 41.0664 10.4058Z" fill="#E0E7F7"/>
</svg>
